<svg width="40" height="40" viewBox="0 0 40 40" fill="none" xmlns="http://www.w3.org/2000/svg">
<g id="vuesax/bold/archive-book">
<g id="vuesax/bold/archive-book_2">
<g id="archive-book">
<path id="Vector" d="M24.8829 4.16536V13.9987C24.8829 14.732 24.0162 15.0987 23.4829 14.6154L20.5662 11.932C20.2495 11.632 19.7495 11.632 19.4329 11.932L16.5162 14.5987C15.9829 15.0987 15.1162 14.7154 15.1162 13.9987V4.16536C15.1162 3.6987 15.4829 3.33203 15.9495 3.33203H24.0495C24.5162 3.33203 24.8829 3.6987 24.8829 4.16536Z" fill="url(#paint0_linear_436_3069)"/>
<path id="Vector_2" d="M28.3 3.43282C27.8167 3.36615 27.3833 3.78282 27.3833 4.26615V14.2995C27.3833 15.5662 26.6333 16.7162 25.4667 17.2328C24.3 17.7328 22.95 17.5162 22.0167 16.6495L20.5667 15.3162C20.25 15.0162 19.7667 15.0162 19.4333 15.3162L17.9833 16.6495C17.3833 17.2162 16.6 17.4995 15.8167 17.4995C15.3833 17.4995 14.95 17.4162 14.5333 17.2328C13.3667 16.7162 12.6167 15.5662 12.6167 14.2995V4.26615C12.6167 3.78282 12.1833 3.36615 11.7 3.43282C7.03333 4.01615 5 7.16615 5 11.6662V28.3328C5 33.3328 7.5 36.6662 13.3333 36.6662H26.6667C32.5 36.6662 35 33.3328 35 28.3328V11.6662C35 7.16615 32.9667 4.01615 28.3 3.43282ZM29.1667 31.2495H15C14.3167 31.2495 13.75 30.6828 13.75 29.9995C13.75 29.3162 14.3167 28.7495 15 28.7495H29.1667C29.85 28.7495 30.4167 29.3162 30.4167 29.9995C30.4167 30.6828 29.85 31.2495 29.1667 31.2495ZM29.1667 24.5828H22.0833C21.4 24.5828 20.8333 24.0162 20.8333 23.3328C20.8333 22.6495 21.4 22.0828 22.0833 22.0828H29.1667C29.85 22.0828 30.4167 22.6495 30.4167 23.3328C30.4167 24.0162 29.85 24.5828 29.1667 24.5828Z" fill="url(#paint1_linear_436_3069)"/>
</g>
</g>
</g>
<defs>
<linearGradient id="paint0_linear_436_3069" x1="24.452" y1="21.3521" x2="14.1125" y2="19.9699" gradientUnits="userSpaceOnUse">
<stop offset="0.00219421" stop-color="#E2B45C"/>
<stop offset="1" stop-color="#FDDC7F"/>
</linearGradient>
<linearGradient id="paint1_linear_436_3069" x1="33.6765" y1="55.5024" x2="1.98925" y2="50.9999" gradientUnits="userSpaceOnUse">
<stop offset="0.00219421" stop-color="#E2B45C"/>
<stop offset="1" stop-color="#FDDC7F"/>
</linearGradient>
</defs>
</svg>
