<svg width="40" height="40" viewBox="0 0 40 40" fill="none" xmlns="http://www.w3.org/2000/svg">
<g id="vuesax/bold/book-saved">
<g id="vuesax/bold/book-saved_2">
<g id="book-saved">
<path id="Vector" d="M18.7497 9.99948V33.1828C18.7497 34.3661 17.5497 35.1828 16.4663 34.7328C13.3663 33.4328 9.51634 32.2995 6.78301 31.9328L6.26634 31.8661C4.64967 31.6661 3.33301 30.1828 3.33301 28.5661V8.74948C3.33301 6.74948 4.94967 5.13281 6.94967 5.13281H7.06634C10.1997 5.39948 14.8163 6.86615 17.8663 8.51615C18.4163 8.81615 18.7497 9.36615 18.7497 9.99948Z" fill="url(#paint0_linear_436_2978)"/>
<path id="Vector_2" d="M33.05 5.13281H32.95C32.55 5.16615 32.1167 5.21615 31.6667 5.29948C29.6167 5.63281 27.1833 6.33281 25 7.19948C23.9667 7.61615 23 8.06615 22.15 8.51615C21.6 8.81615 21.25 9.38281 21.25 9.99948V33.1828C21.25 34.3661 22.45 35.1828 23.5333 34.7328C26.6333 33.4328 30.4833 32.2995 33.2167 31.9328L33.7333 31.8661C35.35 31.6661 36.6667 30.1828 36.6667 28.5661V8.74948C36.6667 6.74948 35.05 5.13281 33.05 5.13281ZM32.1167 22.8828C32.1167 23.5328 31.65 23.8161 31.0833 23.4995L29.3167 22.5161C29.1333 22.4161 28.8333 22.4161 28.6333 22.5161L26.8667 23.4995C26.3 23.8161 25.8333 23.5328 25.8333 22.8828V17.7661C25.8333 16.9995 26.4667 16.3661 27.2333 16.3661H30.7333C31.5 16.3661 32.1333 16.9995 32.1333 17.7661V22.8828H32.1167Z" fill="url(#paint1_linear_436_2978)"/>
</g>
</g>
</g>
<defs>
<linearGradient id="paint0_linear_436_2978" x1="18.0695" y1="51.7028" x2="1.56707" y2="50.3553" gradientUnits="userSpaceOnUse">
<stop offset="0.00219421" stop-color="#E2B45C"/>
<stop offset="1" stop-color="#FDDC7F"/>
</linearGradient>
<linearGradient id="paint1_linear_436_2978" x1="35.9865" y1="51.7028" x2="19.4841" y2="50.3553" gradientUnits="userSpaceOnUse">
<stop offset="0.00219421" stop-color="#E2B45C"/>
<stop offset="1" stop-color="#FDDC7F"/>
</linearGradient>
</defs>
</svg>
