<svg width="40" height="40" viewBox="0 0 40 40" fill="none" xmlns="http://www.w3.org/2000/svg">
<g id="vuesax/bold/briefcase">
<g id="vuesax/bold/briefcase_2">
<path id="Vector" d="M35.1497 11.6326C33.7331 10.0659 31.3664 9.28255 27.9331 9.28255H27.5331V9.21589C27.5331 6.41589 27.5331 2.94922 21.2664 2.94922H18.7331C12.4664 2.94922 12.4664 6.43255 12.4664 9.21589V9.29922H12.0664C8.6164 9.29922 6.2664 10.0826 4.84974 11.6492C3.19974 13.4826 3.24974 15.9492 3.4164 17.6326L3.43307 17.7492L3.57719 19.2625C3.59146 19.4123 3.67233 19.5476 3.79801 19.6303C4.16424 19.8714 4.95031 20.3829 5.39974 20.6326C5.63307 20.7826 5.88307 20.9159 6.13307 21.0492C8.98307 22.6159 12.1164 23.6659 15.2997 24.1826C15.4497 25.7492 16.1331 27.5826 19.7831 27.5826C23.4331 27.5826 24.1497 25.7659 24.2664 24.1492C27.6664 23.5992 30.9497 22.4159 33.9164 20.6826C34.0164 20.6326 34.0831 20.5826 34.1664 20.5326C34.8695 20.1352 35.6005 19.6397 36.2568 19.1618C36.3695 19.0797 36.4418 18.9538 36.4572 18.8153L36.4997 18.4326L36.5831 17.6492C36.5997 17.5492 36.5997 17.4659 36.6164 17.3492C36.7497 15.6659 36.7164 13.3659 35.1497 11.6326ZM21.8164 23.0492C21.8164 24.8159 21.8164 25.0826 19.7664 25.0826C17.7164 25.0826 17.7164 24.7659 17.7164 23.0659V20.9659H21.8164V23.0492ZM14.8497 9.28255V9.21589C14.8497 6.38255 14.8497 5.33255 18.7331 5.33255H21.2664C25.1497 5.33255 25.1497 6.39922 25.1497 9.21589V9.29922H14.8497V9.28255Z" fill="url(#paint0_linear_436_2963)"/>
<path id="Vector_2" d="M35.3304 22.631C35.683 22.4608 36.0881 22.7414 36.0527 23.1314L35.4004 30.3165C35.0504 33.6499 33.6837 37.0499 26.3504 37.0499H13.6504C6.31706 37.0499 4.95039 33.6499 4.60039 30.3332L3.97968 23.5054C3.94464 23.1199 4.3417 22.8402 4.69351 23.0015C6.43117 23.7985 10.6071 25.6581 12.969 26.2386C13.1339 26.2791 13.2685 26.3967 13.3356 26.5527C14.3114 28.8232 16.5356 30.0332 19.7837 30.0332C22.9996 30.0332 25.2537 28.7766 26.2317 26.503C26.2989 26.3468 26.4332 26.2293 26.5983 26.1887C29.1015 25.5727 33.5234 23.5031 35.3304 22.631Z" fill="url(#paint1_linear_436_2963)"/>
</g>
</g>
<defs>
<linearGradient id="paint0_linear_436_2963" x1="35.1954" y1="41.5414" x2="0.841172" y2="34.2237" gradientUnits="userSpaceOnUse">
<stop offset="0.00219421" stop-color="#E2B45C"/>
<stop offset="1" stop-color="#FDDC7F"/>
</linearGradient>
<linearGradient id="paint1_linear_436_2963" x1="34.7117" y1="45.4431" x2="3.62715" y2="34.7928" gradientUnits="userSpaceOnUse">
<stop offset="0.00219421" stop-color="#E2B45C"/>
<stop offset="1" stop-color="#FDDC7F"/>
</linearGradient>
</defs>
</svg>
