<svg width="40" height="40" viewBox="0 0 40 40" fill="none" xmlns="http://www.w3.org/2000/svg">
<g id="vuesax/bold/crown">
<g id="vuesax/bold/crown_2">
<g id="crown">
<path id="Vector" d="M28.3337 36.668H11.667C10.9837 36.668 10.417 36.1013 10.417 35.418C10.417 34.7346 10.9837 34.168 11.667 34.168H28.3337C29.017 34.168 29.5837 34.7346 29.5837 35.418C29.5837 36.1013 29.017 36.668 28.3337 36.668Z" fill="url(#paint0_linear_436_2969)"/>
<path id="Vector_2" d="M33.917 9.19844L27.2504 13.9651C26.367 14.5984 25.1004 14.2151 24.717 13.1984L21.567 4.79844C21.0337 3.34844 18.9837 3.34844 18.4504 4.79844L15.2837 13.1818C14.9004 14.2151 13.6504 14.5984 12.767 13.9484L6.10037 9.18177C4.76703 8.24844 3.00037 9.5651 3.55037 11.1151L10.4837 30.5318C10.717 31.1984 11.3504 31.6318 12.0504 31.6318H27.9337C28.6337 31.6318 29.267 31.1818 29.5004 30.5318L36.4337 11.1151C37.0004 9.5651 35.2337 8.24844 33.917 9.19844ZM24.167 24.5818H15.8337C15.1504 24.5818 14.5837 24.0151 14.5837 23.3318C14.5837 22.6484 15.1504 22.0818 15.8337 22.0818H24.167C24.8504 22.0818 25.417 22.6484 25.417 23.3318C25.417 24.0151 24.8504 24.5818 24.167 24.5818Z" fill="url(#paint1_linear_436_2969)"/>
</g>
</g>
</g>
<defs>
<linearGradient id="paint0_linear_436_2969" x1="28.7381" y1="38.0846" x2="20.3319" y2="27.9381" gradientUnits="userSpaceOnUse">
<stop offset="0.00219421" stop-color="#E2B45C"/>
<stop offset="1" stop-color="#FDDC7F"/>
</linearGradient>
<linearGradient id="paint1_linear_436_2969" x1="35.0824" y1="47.4536" x2="0.620279" y2="41.0223" gradientUnits="userSpaceOnUse">
<stop offset="0.00219421" stop-color="#E2B45C"/>
<stop offset="1" stop-color="#FDDC7F"/>
</linearGradient>
</defs>
</svg>
