<svg width="90" height="90" viewBox="0 0 90 90" fill="none" xmlns="http://www.w3.org/2000/svg">
<path d="M45 90C69.8528 90 90 69.8528 90 45C90 20.1472 69.8528 0 45 0C20.1472 0 0 20.1472 0 45C0 69.8528 20.1472 90 45 90Z" fill="#002F49"/>
<path d="M45 1.6747C54.9971 1.67879 64.6854 5.13909 72.423 11.4692C80.1607 17.7993 85.4719 26.61 87.4566 36.4081C89.4413 46.2062 87.9774 56.3892 83.313 65.2315C78.6486 74.0737 71.0706 81.0314 61.8631 84.9256C51.2747 89.398 39.3434 89.4809 28.6938 85.1562C18.0442 80.8316 9.54875 72.4535 5.07637 61.8651C0.603984 51.2767 0.521004 39.3453 4.84569 28.6957C9.17037 18.0461 17.5485 9.55069 28.1369 5.0783C33.4716 2.82048 39.2072 1.66282 45 1.6747ZM45 0C20.1467 0 0 20.1467 0 45C0 69.8533 20.1467 90 45 90C69.8533 90 90 69.8533 90 45C90 20.1467 69.8533 0 45 0Z" fill="#FFC478"/>
<path d="M34.7392 18.1263C34.596 18.1263 34.4566 18.1263 34.3152 18.1263C33.6604 18.146 33.008 18.2153 32.3637 18.3335C32.1933 18.3664 32.0229 18.4032 31.8525 18.4419C30.5885 18.7345 29.378 19.2232 28.265 19.8901C26.5419 20.9227 24.9705 22.3747 23.5507 24.2462C22.9372 24.1337 22.3137 24.0843 21.6901 24.0991C21.2874 24.0991 20.8983 24.1146 20.5169 24.1436C20.242 24.1649 19.9845 24.194 19.7425 24.2288C19.6495 24.2443 19.5585 24.2579 19.4714 24.2753C18.6118 24.436 17.7876 24.7488 17.0378 25.1988C15.942 25.8648 15.394 26.7005 15.394 27.706C15.394 27.706 15.394 27.7215 15.394 27.7273C15.394 27.7331 15.394 27.7389 15.394 27.7447C15.394 27.7815 15.394 27.8183 15.394 27.8531C15.4058 28.1136 15.471 28.369 15.5856 28.6032C15.7001 28.8375 15.8616 29.0457 16.06 29.215C16.2584 29.3843 16.4894 29.511 16.7388 29.5872C16.9882 29.6635 17.2506 29.6876 17.5097 29.6583C17.7688 29.6289 18.0191 29.5466 18.2451 29.4164C18.4711 29.2862 18.6679 29.111 18.8233 28.9017C18.9788 28.6923 19.0895 28.4532 19.1487 28.1992C19.2079 27.9452 19.2143 27.6818 19.1674 27.4253C19.1549 27.682 19.0408 27.9232 18.8504 28.0959C18.6599 28.2685 18.4087 28.3584 18.152 28.3459C17.8952 28.3333 17.654 28.2192 17.4814 28.0288C17.3087 27.8384 17.2188 27.5871 17.2314 27.3304C17.2335 27.2302 17.2445 27.1305 17.2643 27.0322C17.3566 26.6022 17.6067 26.2223 17.9651 25.9674C18.0232 25.9209 18.0871 25.8745 18.1587 25.8299C18.6375 25.5138 19.1725 25.2923 19.7347 25.1775C20.3069 25.0503 20.8911 24.9854 21.4772 24.9839C21.754 24.9816 22.0307 24.9958 22.3058 25.0265C22.5459 25.0555 22.7724 25.0904 22.9892 25.1291C22.2936 26.3816 21.7669 27.7208 21.423 29.1116C20.9655 30.8388 20.7338 32.618 20.7337 34.4048C20.7386 35.3376 20.8124 36.2688 20.9544 37.1908C21.1016 38.1782 21.2629 39.1753 21.4384 40.182C21.4714 40.4221 21.5004 40.6409 21.5256 40.8441C21.5372 40.9293 21.5488 41.0165 21.5565 41.1036C21.6582 41.9441 21.5803 42.7967 21.3281 43.605L25.2854 41.5895L25.2196 41.5702C24.6078 41.3959 23.8856 40.8112 23.2642 39.9574H23.2738C23.1086 39.7457 22.9671 39.5165 22.8518 39.274C22.4343 38.3143 22.1728 37.294 22.0773 36.2518C22.0773 36.2169 22.0773 36.1763 22.0677 36.1395C22.0057 35.4851 21.9747 34.4609 21.9747 33.0553C21.9967 31.5622 22.2582 30.0823 22.7492 28.6721C23.1166 27.5495 23.5912 26.4648 24.1664 25.4331C25.1953 25.7692 26.1816 26.224 27.1053 26.7883C27.9738 27.3265 28.7613 27.9856 29.4441 28.7457C30.531 29.9457 31.3553 31.3596 31.8642 32.8966C31.9687 33.2257 32.0578 33.5568 32.1236 33.8898C32.0578 33.8898 31.9958 33.8743 31.93 33.8743C31.3215 33.8599 30.7172 33.9779 30.1589 34.2203C29.6006 34.4627 29.1017 34.8236 28.6968 35.278C27.8359 36.2262 27.3758 37.4711 27.4131 38.7513C27.3978 39.4259 27.5237 40.0964 27.7827 40.7196C28.0418 41.3427 28.4283 41.9048 28.9175 42.3698C29.4073 42.8503 29.9889 43.2273 30.6275 43.4785C31.2661 43.7296 31.9487 43.8496 32.6347 43.8315C33.4271 43.8164 34.2118 43.6726 34.958 43.4056C36.8437 42.7705 38.0996 42.453 38.7256 42.453C39.3076 42.4328 39.888 42.5248 40.4351 42.7241C40.728 42.846 40.9967 43.0191 41.2289 43.2352C41.561 43.5709 41.7912 43.9938 41.893 44.4549C41.9771 43.9801 42.1693 43.531 42.4546 43.1422C42.74 42.7535 43.1109 42.4355 43.5387 42.2129C43.4806 42.1858 43.4244 42.1607 43.3663 42.1278C43.3083 42.0948 43.2947 42.0871 43.2599 42.0658C42.4224 41.4792 41.7416 40.6961 41.2773 39.7851C40.886 38.992 40.687 38.1178 40.6965 37.2334V24.707C40.7028 24.4604 40.7386 24.2153 40.803 23.9771C40.9676 23.3808 41.3083 22.9471 41.7149 22.8523C41.7357 22.8459 41.7571 22.8414 41.7788 22.8387C41.8136 22.8359 41.8485 22.8359 41.8833 22.8387H37.4594C37.5095 22.8397 37.5595 22.8455 37.6085 22.8561H37.6298C38.0363 22.953 38.3771 23.3866 38.5417 23.9849C38.6066 24.2268 38.6411 24.4759 38.6443 24.7264V35.8878C38.6384 37.2322 38.9502 38.5589 39.5542 39.7599C39.9787 40.629 40.5542 41.4157 41.2541 42.0832C40.7377 41.7476 40.1874 41.4673 39.6123 41.2468C38.9494 40.9801 38.2435 40.8364 37.5291 40.8228C36.8553 40.8228 35.6337 41.1404 33.8641 41.7754C33.1219 42.0606 32.3358 42.2145 31.5408 42.2304C31.1303 42.2392 30.7222 42.1658 30.3405 42.0145C29.9588 41.8632 29.6112 41.6371 29.3182 41.3495C28.6729 40.7235 28.3502 39.8845 28.3502 38.8326C28.3502 37.7277 28.6264 36.8242 29.1788 36.1221C29.4343 35.7854 29.7665 35.5146 30.1476 35.3321C30.5288 35.1496 30.948 35.0607 31.3705 35.0727C31.6959 35.0671 32.0198 35.1195 32.3269 35.2276C32.3501 35.4987 32.3598 35.7716 32.3598 36.0446V36.6913C32.3685 37.1591 32.2601 37.6217 32.0442 38.0368C31.9926 38.13 31.9317 38.2175 31.8622 38.2982C31.7923 38.4023 31.6982 38.4879 31.5879 38.5476C31.4776 38.6073 31.3545 38.6393 31.2291 38.6409H35.442C35.3945 38.6406 35.3471 38.6354 35.3007 38.6254C35.0893 38.5687 34.904 38.4408 34.776 38.2634C34.6031 38.0328 34.4793 37.7692 34.412 37.4889C34.3445 37.2271 34.3107 36.9578 34.3114 36.6874V20.0566C34.3114 19.1428 34.6753 18.38 35.1671 18.167C35.2237 18.1431 35.2828 18.1256 35.3433 18.1147C35.3762 18.1128 35.4091 18.1128 35.442 18.1147L34.7392 18.1263ZM26.2205 22.7226C26.7873 22.1616 27.4057 21.6554 28.0675 21.2105C29.318 20.3034 30.7477 19.6737 32.2611 19.3635V30.9489C31.8253 30.1612 31.3254 29.4107 30.7664 28.705C30.2166 28.039 29.5967 27.4341 28.9175 26.9006C28.3249 26.4177 27.6921 25.9863 27.0259 25.6112C26.29 25.2107 25.5195 24.877 24.7239 24.6141C25.1659 23.9406 25.6667 23.3076 26.2205 22.7226Z" fill="url(#paint0_linear_893_1390)"/>
<path d="M54.5566 18.1264C54.5895 18.1245 54.6225 18.1245 54.6554 18.1264C54.7158 18.1373 54.7749 18.1549 54.8316 18.1787C55.3233 18.3917 55.6873 19.1467 55.6873 20.0683V36.6991C55.688 36.9695 55.6542 37.2389 55.5866 37.5007C55.5194 37.7809 55.3955 38.0445 55.2226 38.2751C55.0946 38.4526 54.9093 38.5804 54.698 38.6371C54.6515 38.6472 54.6041 38.6524 54.5566 38.6526H58.7695C58.6441 38.651 58.521 38.619 58.4107 38.5593C58.3004 38.4996 58.2063 38.414 58.1364 38.3099C58.067 38.2292 58.006 38.1417 57.9544 38.0486C57.7386 37.6334 57.6301 37.1708 57.6389 36.703V36.0564C57.6389 35.7834 57.6485 35.5104 57.6718 35.2393C57.9788 35.1313 58.3027 35.0788 58.6282 35.0844C59.0506 35.0724 59.4698 35.1613 59.851 35.3438C60.2322 35.5263 60.5643 35.7972 60.8198 36.1338C61.3709 36.8334 61.6471 37.7369 61.6484 38.8443C61.6484 39.8898 61.3258 40.7287 60.6804 41.3612C60.3854 41.6467 60.0363 41.8704 59.6536 42.019C59.2709 42.1677 58.8624 42.2382 58.452 42.2266C57.657 42.2108 56.8709 42.0568 56.1287 41.7716C54.3591 41.1366 53.1375 40.8191 52.4637 40.8191C51.7493 40.8326 51.0434 40.9763 50.3805 41.2431C49.8055 41.4635 49.2552 41.7439 48.7387 42.0795C49.4386 41.4119 50.0142 40.6252 50.4386 39.7562C51.0426 38.5551 51.3544 37.2284 51.3486 35.884V24.7304C51.3517 24.4799 51.3862 24.2308 51.4512 23.9888C51.6157 23.3906 51.9565 22.9569 52.3631 22.8601H52.3844C52.4334 22.8495 52.4833 22.8437 52.5334 22.8427H48.1153C48.1501 22.8398 48.1851 22.8398 48.2199 22.8427C48.2415 22.8454 48.2629 22.8499 48.2838 22.8562C48.6903 22.9511 49.0311 23.3848 49.1957 23.9811C49.2601 24.2193 49.2958 24.4643 49.3021 24.711V37.2335C49.3116 38.1179 49.1127 38.9921 48.7213 39.7852C48.2576 40.6943 47.5782 41.476 46.7427 42.062C46.7078 42.0833 46.673 42.1046 46.6362 42.124C46.5994 42.1433 46.5219 42.1821 46.4639 42.2092C46.8916 42.4318 47.2625 42.7497 47.5479 43.1384C47.8332 43.5272 48.0254 43.9763 48.1095 44.4511C48.2113 43.99 48.4415 43.5672 48.7736 43.2314C49.0058 43.0153 49.2746 42.8422 49.5674 42.7203C50.1145 42.521 50.695 42.429 51.2769 42.4492C51.9029 42.4492 53.1588 42.7668 55.0445 43.4018C55.7907 43.6688 56.5754 43.8127 57.3678 43.8277C58.0538 43.8459 58.7364 43.7258 59.375 43.4747C60.0136 43.2236 60.5952 42.8465 61.085 42.366C61.5742 41.9011 61.9607 41.339 62.2198 40.7158C62.4789 40.0926 62.6047 39.4222 62.5894 38.7475C62.6267 37.4673 62.1666 36.2224 61.3057 35.2742C60.9008 34.8198 60.4019 34.4589 59.8436 34.2165C59.2853 33.9742 58.681 33.8561 58.0725 33.8705C58.0067 33.8705 57.9447 33.8822 57.8789 33.886C57.9506 33.553 58.0338 33.222 58.1383 32.8928C58.6473 31.3558 59.4715 29.942 60.5584 28.7419C61.2409 27.9833 62.0277 27.3256 62.8953 26.7884C63.819 26.2241 64.8053 25.7693 65.8342 25.4332C66.4139 26.4638 66.8931 27.5478 67.265 28.6703C67.756 30.0805 68.0174 31.5604 68.0394 33.0535C68.0394 34.4591 68.0084 35.4833 67.9465 36.1377C67.9465 36.1745 67.9465 36.2151 67.9465 36.25C67.851 37.2922 67.5896 38.3125 67.172 39.2722C67.0567 39.5147 66.9152 39.7439 66.75 39.9556C66.1285 40.8094 65.4063 41.3941 64.7945 41.5683L64.7287 41.5877L68.686 43.6031C68.4331 42.7997 68.3526 41.952 68.4498 41.1153C68.4498 41.0282 68.4692 40.9411 68.4808 40.8559C68.506 40.6526 68.535 40.4338 68.5679 40.1937C68.7448 39.187 68.9061 38.1899 69.052 37.2025C69.194 36.2805 69.2677 35.3493 69.2727 34.4165C69.2717 32.6256 69.0381 30.8424 68.5776 29.1117C68.2318 27.7233 67.7038 26.3868 67.0075 25.1369C67.2243 25.0982 67.4508 25.0634 67.6909 25.0343C67.966 25.0036 68.2427 24.9894 68.5195 24.9917C69.1056 24.9933 69.6899 25.0582 70.262 25.1853C70.8242 25.3001 71.3592 25.5216 71.838 25.8378C71.9057 25.8823 71.9696 25.9288 72.0316 25.9753C72.39 26.2301 72.6401 26.61 72.7324 27.0401C72.7522 27.1383 72.7632 27.2381 72.7653 27.3382C72.7779 27.595 72.688 27.8462 72.5153 28.0366C72.3427 28.2271 72.1015 28.3411 71.8447 28.3537C71.588 28.3663 71.3368 28.2764 71.1463 28.1037C70.9559 27.9311 70.8418 27.6899 70.8293 27.4331C70.7873 27.6874 70.7975 27.9476 70.8593 28.1979C70.921 28.4482 71.033 28.6833 71.1884 28.8889C71.3438 29.0945 71.5394 29.2664 71.7633 29.3941C71.9873 29.5218 72.2348 29.6026 72.4909 29.6316C72.7471 29.6607 73.0064 29.6373 73.2532 29.563C73.5 29.4887 73.7292 29.365 73.9267 29.1994C74.1242 29.0338 74.286 28.8297 74.4022 28.5996C74.5184 28.3696 74.5866 28.1182 74.6027 27.861C74.6027 27.8261 74.6027 27.7893 74.6027 27.7526C74.6027 27.7526 74.6027 27.7409 74.6027 27.7351C74.6027 27.7293 74.6027 27.7216 74.6027 27.7138C74.6027 26.7071 74.0547 25.8714 72.9589 25.2066C72.2091 24.7566 71.385 24.4439 70.5253 24.2831C70.4382 24.2657 70.3472 24.2522 70.2543 24.2367C70.0161 24.2018 69.7586 24.1728 69.4798 24.1515C69.0926 24.1224 68.7054 24.1069 68.3066 24.1069C67.683 24.0922 67.0595 24.1415 66.446 24.2541C65.0262 22.3761 63.4548 20.9241 61.7317 19.8979C60.6187 19.231 59.4082 18.7424 58.1442 18.4498C57.9738 18.411 57.8034 18.3743 57.633 18.3413C56.9887 18.2231 56.3363 18.1539 55.6815 18.1342C55.5401 18.1342 55.4007 18.1342 55.2575 18.1342L54.5566 18.1264ZM62.9766 25.6055C62.3105 25.9806 61.6777 26.4119 61.085 26.8949C60.4058 27.4283 59.786 28.0333 59.2361 28.6993C58.6772 29.405 58.1772 30.1555 57.7415 30.9432V19.3578C59.2548 19.668 60.6845 20.2977 61.935 21.2048C62.5963 21.6516 63.2141 22.1598 63.78 22.7227C64.3338 23.3077 64.8347 23.9407 65.2766 24.6142C64.4819 24.8753 63.7121 25.2071 62.9766 25.6055Z" fill="url(#paint1_linear_893_1390)"/>
<path d="M55.2608 71.8754C55.4041 71.8754 55.5435 71.8754 55.6848 71.8658C56.3397 71.8471 56.9922 71.7778 57.6364 71.6586C57.8068 71.6276 57.9771 71.5908 58.1475 71.5521C59.4114 71.258 60.6217 70.7687 61.735 70.102C63.4581 69.0694 65.0296 67.618 66.4494 65.7478C67.0631 65.8586 67.6864 65.9072 68.3099 65.893C68.7126 65.893 69.1018 65.8795 69.4832 65.8504C69.7581 65.8291 70.0156 65.8001 70.2576 65.7633C70.3505 65.7497 70.4415 65.7342 70.5286 65.7168C71.3886 65.557 72.2128 65.2442 72.9623 64.7933C74.0581 64.1286 74.606 63.2929 74.606 62.2861C74.606 62.2861 74.606 62.2726 74.606 62.2648C74.606 62.2571 74.606 62.2532 74.606 62.2493C74.606 62.2106 74.606 62.1758 74.606 62.139C74.5942 61.8785 74.529 61.6231 74.4145 61.3889C74.2999 61.1546 74.1385 60.9464 73.9401 60.7771C73.7417 60.6078 73.5106 60.4812 73.2613 60.4049C73.0119 60.3287 72.7495 60.3045 72.4904 60.3338C72.2313 60.3632 71.9809 60.4456 71.755 60.5757C71.529 60.7059 71.3322 60.8811 71.1767 61.0904C71.0213 61.2998 70.9105 61.5389 70.8513 61.7929C70.7921 62.0469 70.7858 62.3103 70.8326 62.5668C70.8452 62.3101 70.9592 62.0689 71.1497 61.8962C71.3401 61.7236 71.5913 61.6337 71.8481 61.6462C72.1048 61.6588 72.346 61.7729 72.5187 61.9633C72.6913 62.1537 72.7813 62.405 72.7687 62.6617C72.7668 62.7619 72.7558 62.8617 72.7358 62.9599C72.644 63.3901 72.3938 63.7702 72.0349 64.0247C71.9768 64.0712 71.9129 64.1176 71.8413 64.1641C71.3617 64.4787 70.827 64.7 70.2653 64.8166C69.6932 64.9437 69.109 65.0086 68.5229 65.0102C68.246 65.0119 67.9693 64.997 67.6942 64.9656C67.4542 64.9366 67.2277 64.9017 67.0108 64.863C67.7068 63.6137 68.2348 62.2778 68.581 60.8902C69.0384 59.1623 69.2701 57.3825 69.2702 55.5951C69.2653 54.6622 69.1915 53.731 69.0495 52.8091C68.9024 51.8217 68.741 50.8246 68.5655 49.8178C68.5326 49.5778 68.5035 49.359 68.4784 49.1557C68.4667 49.0705 68.4551 48.9853 68.4474 48.8963C68.3457 48.0557 68.4236 47.2031 68.6758 46.3949L64.7185 48.4123C64.7409 48.4169 64.763 48.4234 64.7843 48.4316C65.3961 48.6039 66.1183 49.1886 66.7398 50.0424C66.9054 50.2538 67.047 50.4831 67.1618 50.7259C67.5796 51.6848 67.841 52.7045 67.9363 53.7461C67.9363 53.781 67.9363 53.8216 67.9363 53.8603C67.9982 54.5128 68.0292 55.537 68.0292 56.9426C68.0071 58.4363 67.7456 59.9168 67.2548 61.3278C66.8856 62.4513 66.409 63.5366 65.8318 64.5687C64.8028 64.2326 63.8165 63.7778 62.8928 63.2135C62.0234 62.6765 61.2358 62.0173 60.554 61.2561C59.4676 60.0565 58.6433 58.6434 58.134 57.1071C58.0294 56.778 57.9403 56.4469 57.8745 56.1139C57.9403 56.1139 58.0023 56.1275 58.0681 56.1275C58.6765 56.1423 59.2807 56.0246 59.8391 55.7825C60.3974 55.5405 60.8963 55.1799 61.3014 54.7258C62.1622 53.7775 62.6223 52.5327 62.585 51.2525C62.6006 50.5774 62.4749 49.9066 62.2158 49.2831C61.9567 48.6596 61.57 48.0972 61.0806 47.632C60.5905 47.1518 60.0089 46.775 59.3704 46.5239C58.7318 46.2728 58.0493 46.1526 57.3634 46.1703C56.5711 46.1862 55.7865 46.33 55.0401 46.5962C53.1544 47.2313 51.8985 47.5488 51.2725 47.5488C50.6906 47.569 50.1101 47.477 49.563 47.2777C49.2707 47.1557 49.002 46.9833 48.7692 46.7685C48.4375 46.4318 48.2074 46.0084 48.1051 45.5469C48.0207 46.0218 47.8284 46.4711 47.5432 46.8601C47.2579 47.2491 46.8871 47.5675 46.4595 47.7908C46.5176 47.8159 46.5737 47.8431 46.6318 47.874C46.6899 47.905 46.7034 47.9166 46.7383 47.9379C47.574 48.5232 48.2528 49.3051 48.715 50.2147C49.1069 51.0077 49.3059 51.882 49.2958 52.7665V65.287C49.2898 65.5337 49.254 65.7788 49.1893 66.0169C49.0248 66.6132 48.684 67.0469 48.2774 67.1418L48.2135 67.1573C48.1787 67.1592 48.1438 67.1592 48.109 67.1573H52.5503C52.5001 67.1573 52.4501 67.1515 52.4013 67.1398C52.3942 67.1407 52.387 67.1407 52.38 67.1398C51.9734 67.043 51.6326 66.6093 51.4681 66.013C51.4031 65.7718 51.3686 65.5233 51.3655 65.2735V54.1217C51.3713 52.7774 51.0595 51.4506 50.4555 50.2496C50.0311 49.3805 49.4555 48.5938 48.7557 47.9263C49.2712 48.2634 49.8217 48.5438 50.3974 48.7627C51.0602 49.03 51.7661 49.1743 52.4806 49.1886C53.1544 49.1886 54.376 48.8705 56.1456 48.2341C56.8881 47.9499 57.6741 47.796 58.4689 47.7792C58.8772 47.7706 59.2832 47.8434 59.6631 47.9933C60.043 48.1432 60.3893 48.3673 60.6818 48.6523C61.3272 49.277 61.6499 50.1128 61.6499 51.1595C61.6499 52.2644 61.3736 53.1679 60.8212 53.87C60.5656 54.2064 60.2334 54.477 59.8522 54.6591C59.4711 54.8413 59.0519 54.9299 58.6296 54.9174C58.3041 54.9231 57.9802 54.8706 57.6732 54.7626C57.6499 54.4915 57.6403 54.2205 57.6403 53.9475V53.2989C57.6315 52.8311 57.74 52.3685 57.9558 51.9533C58.0074 51.8602 58.0684 51.7726 58.1378 51.692C58.2692 51.5203 58.4584 51.402 58.6702 51.3589C58.7035 51.3529 58.7372 51.3497 58.7709 51.3493H54.5561C54.6037 51.3502 54.6511 51.356 54.6974 51.3667C54.9091 51.4227 55.0947 51.5507 55.2221 51.7287C55.3952 51.9592 55.5191 52.2228 55.5861 52.5032C55.6534 52.765 55.6872 53.0343 55.6868 53.3047V69.9355C55.6868 70.8493 55.3228 71.6141 54.831 71.8251C54.7747 71.8498 54.7155 71.8674 54.6548 71.8774C54.622 71.8803 54.5889 71.8803 54.5561 71.8774L55.2608 71.8754ZM63.7795 67.287C63.2121 67.8467 62.5938 68.3522 61.9325 68.7971C60.6825 69.705 59.2526 70.3348 57.739 70.6441V59.0606C58.1752 59.8481 58.6751 60.5985 59.2336 61.3045C59.7836 61.9699 60.4034 62.5742 61.0826 63.107C61.6752 63.5905 62.308 64.0226 62.9741 64.3984C63.7105 64.7981 64.4808 65.1317 65.2761 65.3954C64.8336 66.0686 64.3328 66.7015 63.7795 67.287Z" fill="url(#paint2_linear_893_1390)"/>
<path d="M35.4434 71.8755C35.4106 71.8784 35.3776 71.8784 35.3447 71.8755C35.284 71.8655 35.2248 71.8479 35.1685 71.8232C34.6768 71.6122 34.3128 70.8552 34.3128 69.9336V53.3028C34.3123 53.0324 34.3462 52.7631 34.4135 52.5013C34.4804 52.2209 34.6043 51.9573 34.7774 51.7268C34.9049 51.5488 35.0904 51.4207 35.3021 51.3648C35.3485 51.3541 35.3959 51.3483 35.4434 51.3474H31.2306C31.2643 51.3478 31.298 51.351 31.3312 51.357C31.5431 51.4 31.7323 51.5183 31.8637 51.69C31.9331 51.7707 31.9941 51.8583 32.0456 51.9514C32.2615 52.3666 32.37 52.8292 32.3612 53.297V53.9456C32.3612 54.2185 32.3515 54.4896 32.3283 54.7607C32.0212 54.8687 31.6974 54.9212 31.3719 54.9155C30.9496 54.928 30.5304 54.8394 30.1492 54.6572C29.768 54.4751 29.4359 54.2045 29.1803 53.8681C28.6278 53.1686 28.3516 52.2651 28.3516 51.1576C28.3516 50.1122 28.6743 49.2764 29.3197 48.6504C29.6146 48.3649 29.9637 48.1412 30.3464 47.9926C30.7291 47.8439 31.1377 47.7734 31.5481 47.785C32.3429 47.8018 33.1289 47.9557 33.8714 48.24C35.6409 48.875 36.8626 49.1932 37.5363 49.1945C38.2508 49.1802 38.9568 49.0358 39.6195 48.7685C40.1953 48.5496 40.7458 48.2692 41.2613 47.9321C40.5615 48.5997 39.9859 49.3864 39.5615 50.2554C38.9575 51.4565 38.6457 52.7832 38.6515 54.1276V65.2793C38.6483 65.5291 38.6139 65.7776 38.5489 66.0189C38.3843 66.6152 38.0436 67.0489 37.637 67.1457C37.6299 67.1465 37.6228 67.1465 37.6157 67.1457C37.5669 67.1573 37.5168 67.1631 37.4666 67.1631H41.8925C41.8577 67.165 41.8228 67.165 41.7879 67.1631L41.724 67.1476C41.3175 67.0527 40.9767 66.6191 40.8122 66.0228C40.7475 65.7846 40.7117 65.5395 40.7057 65.2929V52.7742C40.6956 51.8898 40.8946 51.0155 41.2865 50.2225C41.7498 49.3108 42.4307 48.5275 43.269 47.9418C43.3039 47.9205 43.3387 47.8973 43.3755 47.8779C43.4123 47.8586 43.4897 47.8199 43.5478 47.7947C43.1202 47.5714 42.7494 47.2531 42.4641 46.864C42.1788 46.475 41.9866 46.0258 41.9022 45.5508C41.7999 46.0123 41.5698 46.4357 41.2381 46.7724C41.0053 46.9872 40.7366 47.1596 40.4443 47.2816C39.8971 47.4809 39.3167 47.5729 38.7348 47.5527C38.1088 47.5527 36.8529 47.2352 34.9672 46.6001C34.2207 46.334 33.4362 46.1901 32.6439 46.1742C31.958 46.1565 31.2755 46.2767 30.6369 46.5278C29.9984 46.7789 29.4168 47.1558 28.9266 47.6359C28.4372 48.1011 28.0506 48.6635 27.7915 49.287C27.5324 49.9105 27.4067 50.5814 27.4223 51.2564C27.385 52.5366 27.845 53.7814 28.7059 54.7297C29.111 55.1838 29.6099 55.5444 30.1682 55.7865C30.7266 56.0285 31.3308 56.1462 31.9392 56.1314C32.005 56.1314 32.0669 56.1198 32.1328 56.1178C32.0611 56.4508 31.9779 56.7819 31.8733 57.111C31.364 58.6473 30.5397 60.0604 29.4533 61.26C28.7715 62.0212 27.9838 62.6804 27.1145 63.2174C26.1908 63.7817 25.2045 64.2365 24.1755 64.5726C23.5924 63.5418 23.11 62.4571 22.7351 61.3336C22.2442 59.9227 21.9828 58.4421 21.9607 56.9484C21.9607 55.5428 21.9917 54.5186 22.0536 53.8662C22.0536 53.8275 22.0536 53.7868 22.0633 53.752C22.1585 52.7103 22.42 51.6907 22.8377 50.7317C22.9525 50.4889 23.0941 50.2597 23.2598 50.0483H23.2501C23.8716 49.1945 24.5937 48.6098 25.2055 48.4375C25.2269 48.4292 25.2489 48.4228 25.2713 48.4181L21.3218 46.3949C21.574 47.2032 21.6519 48.0557 21.5502 48.8963C21.5502 48.9854 21.5309 49.0705 21.5193 49.1557C21.4941 49.3493 21.465 49.5778 21.4321 49.8179C21.2553 50.8246 21.094 51.8217 20.9481 52.8091C20.8061 53.7311 20.7323 54.6623 20.7274 55.5951C20.7275 57.3825 20.9592 59.1624 21.4166 60.8902C21.7628 62.2779 22.2908 63.6137 22.9868 64.863C22.7699 64.9018 22.5434 64.9366 22.3034 64.9657C22.0283 64.9971 21.7516 65.0119 21.4747 65.0102C20.8886 65.0086 20.3044 64.9437 19.7323 64.8166C19.1706 64.7001 18.6359 64.4787 18.1563 64.1641C18.0885 64.1177 18.0247 64.0712 17.9627 64.0247C17.6038 63.7702 17.3537 63.3902 17.2618 62.9599C17.2419 62.8617 17.2308 62.7619 17.2289 62.6617C17.2163 62.405 17.3063 62.1538 17.4789 61.9633C17.6516 61.7729 17.8928 61.6589 18.1495 61.6463C18.4063 61.6337 18.6575 61.7236 18.8479 61.8963C19.0384 62.0689 19.1524 62.3101 19.165 62.5669C19.2069 62.3125 19.1967 62.0523 19.135 61.8021C19.0733 61.5518 18.9613 61.3167 18.8059 61.1111C18.6504 60.9055 18.4548 60.7336 18.2309 60.6059C18.007 60.4782 17.7595 60.3974 17.5033 60.3683C17.2472 60.3393 16.9879 60.3626 16.741 60.437C16.4942 60.5113 16.2651 60.635 16.0676 60.8006C15.8701 60.9662 15.7083 61.1703 15.5921 61.4003C15.4759 61.6304 15.4077 61.8817 15.3916 62.139C15.3916 62.1758 15.3916 62.2106 15.3916 62.2494C15.3916 62.2494 15.3916 62.2494 15.3916 62.2648C15.3916 62.2803 15.3916 62.2784 15.3916 62.2861C15.3916 63.2929 15.9395 64.1286 17.0353 64.7933C17.7848 65.2442 18.609 65.557 19.469 65.7169C19.5561 65.7343 19.6471 65.7498 19.74 65.7633C19.9781 65.8001 20.2356 65.8291 20.5144 65.8504C20.9016 65.8795 21.2889 65.893 21.6877 65.893C22.3112 65.9073 22.9345 65.8586 23.5483 65.7478C24.968 67.6232 26.5395 69.0746 28.2626 70.102C29.3759 70.7688 30.5862 71.258 31.8501 71.5522C32.0205 71.5909 32.1909 71.6277 32.3612 71.6586C33.0054 71.7778 33.6579 71.8471 34.3128 71.8658C34.4541 71.8658 34.5935 71.8755 34.7368 71.8755H35.4434ZM32.2586 70.6441C30.7453 70.336 29.3154 69.7075 28.0651 68.801C27.4038 68.3561 26.7855 67.8506 26.2181 67.2909C25.6648 66.7054 25.164 66.0725 24.7215 65.3993C25.5168 65.1356 26.2871 64.802 27.0235 64.4023C27.6896 64.0265 28.3224 63.5944 28.915 63.1109C29.5942 62.5781 30.2141 61.9738 30.764 61.3084C31.3225 60.6024 31.8224 59.852 32.2586 59.0645V70.6441Z" fill="url(#paint3_linear_893_1390)"/>
<path d="M44.9999 46.1247C45.6211 46.1247 46.1247 45.6211 46.1247 44.9999C46.1247 44.3786 45.6211 43.875 44.9999 43.875C44.3786 43.875 43.875 44.3786 43.875 44.9999C43.875 45.6211 44.3786 46.1247 44.9999 46.1247Z" fill="url(#paint4_linear_893_1390)"/>
<defs>
<linearGradient id="paint0_linear_893_1390" x1="15.396" y1="31.2877" x2="43.5464" y2="31.2877" gradientUnits="userSpaceOnUse">
<stop stop-color="#FFC478"/>
<stop offset="0.91" stop-color="#FFC478"/>
<stop offset="1" stop-color="#FFC478"/>
</linearGradient>
<linearGradient id="paint1_linear_893_1390" x1="46.4542" y1="31.2878" x2="74.6046" y2="31.2878" gradientUnits="userSpaceOnUse">
<stop stop-color="#FFC478"/>
<stop offset="0.91" stop-color="#FFC478"/>
<stop offset="1" stop-color="#FFC478"/>
</linearGradient>
<linearGradient id="paint2_linear_893_1390" x1="46.4537" y1="58.7141" x2="74.6041" y2="58.7141" gradientUnits="userSpaceOnUse">
<stop stop-color="#FFC478"/>
<stop offset="0.91" stop-color="#FFC478"/>
<stop offset="1" stop-color="#FFC478"/>
</linearGradient>
<linearGradient id="paint3_linear_893_1390" x1="15.3955" y1="58.7141" x2="43.5459" y2="58.7141" gradientUnits="userSpaceOnUse">
<stop stop-color="#FFC478"/>
<stop offset="0.91" stop-color="#FFC478"/>
<stop offset="1" stop-color="#FFC478"/>
</linearGradient>
<linearGradient id="paint4_linear_893_1390" x1="43.875" y1="44.9999" x2="46.1247" y2="44.9999" gradientUnits="userSpaceOnUse">
<stop stop-color="#FFC478"/>
<stop offset="0.91" stop-color="#FFC478"/>
<stop offset="1" stop-color="#FFC478"/>
</linearGradient>
</defs>
</svg>
