<svg width="120" height="98" viewBox="0 0 120 98" fill="none" xmlns="http://www.w3.org/2000/svg">
<g clip-path="url(#clip0_963_792)">
<path d="M60 55.9165C75.4041 55.9165 87.8916 43.3992 87.8916 27.9582C87.8916 12.5173 75.4041 0 60 0C44.5959 0 32.1084 12.5173 32.1084 27.9582C32.1084 43.3992 44.5959 55.9165 60 55.9165Z" fill="#002F49"/>
<path d="M60 1.04048C66.1963 1.04302 72.2012 3.19289 76.9972 7.12576C81.7931 11.0586 85.085 16.5326 86.3151 22.6201C87.5453 28.7077 86.638 35.0343 83.7469 40.5279C80.8559 46.0216 76.1589 50.3444 70.452 52.7638C63.8892 55.5424 56.4939 55.594 49.8932 52.9071C43.2924 50.2202 38.0268 45.0149 35.2548 38.4364C32.4828 31.8579 32.4313 24.445 35.1118 17.8285C37.7923 11.212 42.9852 5.93379 49.548 3.15512C52.8545 1.75235 56.4095 1.0331 60 1.04048ZM60 0C44.5956 0 32.1084 12.517 32.1084 27.9582C32.1084 43.3995 44.5956 55.9165 60 55.9165C75.4044 55.9165 87.8916 43.3995 87.8916 27.9582C87.8916 12.517 75.4044 0 60 0Z" fill="#FFC478"/>
<path d="M53.6398 11.2581C53.551 11.2581 53.4646 11.2581 53.377 11.2581C52.9712 11.2703 52.5668 11.3134 52.1674 11.3868C52.0618 11.4073 51.9562 11.4301 51.8506 11.4542C51.0671 11.636 50.3168 11.9396 49.627 12.3539C48.559 12.9955 47.585 13.8976 46.705 15.0604C46.3247 14.9904 45.9383 14.9598 45.5518 14.969C45.3022 14.969 45.061 14.9786 44.8246 14.9966C44.6542 15.0099 44.4946 15.0279 44.3446 15.0495C44.287 15.0592 44.2306 15.0676 44.1766 15.0784C43.6438 15.1783 43.133 15.3726 42.6682 15.6522C41.989 16.066 41.6494 16.5852 41.6494 17.2099C41.6494 17.2099 41.6494 17.2195 41.6494 17.2231C41.6494 17.2267 41.6494 17.2303 41.6494 17.234C41.6494 17.2568 41.6494 17.2797 41.6494 17.3013C41.6567 17.4632 41.6971 17.6218 41.7681 17.7673C41.8391 17.9129 41.9392 18.0423 42.0622 18.1474C42.1851 18.2526 42.3283 18.3313 42.4829 18.3787C42.6375 18.4261 42.8001 18.4411 42.9607 18.4228C43.1213 18.4046 43.2765 18.3534 43.4165 18.2726C43.5566 18.1917 43.6786 18.0828 43.7749 17.9528C43.8713 17.8227 43.9399 17.6741 43.9766 17.5163C44.0133 17.3585 44.0173 17.1949 43.9882 17.0355C43.9804 17.195 43.9097 17.3449 43.7917 17.4521C43.6737 17.5594 43.5179 17.6153 43.3588 17.6074C43.1997 17.5996 43.0502 17.5288 42.9432 17.4105C42.8362 17.2921 42.7804 17.1361 42.7882 16.9765C42.7895 16.9143 42.7964 16.8523 42.8086 16.7913C42.8658 16.5241 43.0208 16.2881 43.243 16.1297C43.279 16.1009 43.3186 16.072 43.363 16.0443C43.6598 15.8479 43.9914 15.7103 44.3398 15.639C44.6944 15.56 45.0565 15.5196 45.4198 15.5187C45.5914 15.5172 45.7629 15.5261 45.9334 15.5451C46.0822 15.5632 46.2226 15.5848 46.357 15.6089C45.9259 16.3871 45.5994 17.2191 45.3862 18.0832C45.1027 19.1563 44.9591 20.2617 44.959 21.3718C44.9621 21.9514 45.0078 22.5299 45.0958 23.1027C45.187 23.7162 45.287 24.3357 45.3958 24.9612C45.4162 25.1103 45.4342 25.2463 45.4498 25.3726C45.457 25.4255 45.4642 25.4796 45.469 25.5337C45.532 26.056 45.4838 26.5857 45.3274 27.0878L47.7802 25.8357L47.7394 25.8236C47.3602 25.7154 46.9126 25.3521 46.5274 24.8216H46.5334C46.431 24.6901 46.3433 24.5477 46.2718 24.397C46.013 23.8008 45.851 23.1669 45.7918 22.5194C45.7918 22.4977 45.7918 22.4724 45.7858 22.4496C45.7474 22.043 45.7282 21.4067 45.7282 20.5334C45.7418 19.6058 45.9039 18.6863 46.2082 17.8101C46.436 17.1126 46.7301 16.4387 47.0866 15.7977C47.7244 16.0066 48.3357 16.2891 48.9082 16.6397C49.4465 16.9741 49.9346 17.3836 50.3578 17.8558C51.0315 18.6014 51.5424 19.4798 51.8578 20.4348C51.9226 20.6393 51.9778 20.845 52.0186 21.0519C51.9778 21.0519 51.9394 21.0422 51.8986 21.0422C51.5215 21.0333 51.1469 21.1066 50.8009 21.2572C50.4548 21.4078 50.1456 21.632 49.8946 21.9143C49.361 22.5035 49.0759 23.2769 49.099 24.0723C49.0895 24.4914 49.1675 24.908 49.3281 25.2952C49.4887 25.6823 49.7282 26.0315 50.0314 26.3204C50.335 26.619 50.6955 26.8532 51.0913 27.0092C51.4871 27.1653 51.9102 27.2399 52.3354 27.2286C52.8266 27.2192 53.3129 27.1298 53.7754 26.964C54.9442 26.5694 55.7226 26.3721 56.1106 26.3721C56.4713 26.3595 56.8311 26.4167 57.1702 26.5405C57.3517 26.6163 57.5183 26.7238 57.6622 26.8581C57.868 27.0667 58.0107 27.3294 58.0738 27.6159C58.126 27.3209 58.2451 27.0419 58.4219 26.8003C58.5988 26.5588 58.8287 26.3613 59.0938 26.223C59.0578 26.2061 59.023 26.1905 58.987 26.1701C58.951 26.1496 58.9426 26.1448 58.921 26.1316C58.4019 25.7671 57.98 25.2806 57.6922 24.7146C57.4497 24.2218 57.3263 23.6787 57.3322 23.1292V15.3467C57.3361 15.1934 57.3583 15.0412 57.3982 14.8932C57.5002 14.5227 57.7114 14.2533 57.9634 14.1943C57.9763 14.1904 57.9896 14.1875 58.003 14.1859C58.0246 14.1841 58.0463 14.1841 58.0678 14.1859H55.3258C55.3569 14.1865 55.3878 14.1901 55.4182 14.1967H55.4314C55.6834 14.2569 55.8946 14.5263 55.9966 14.898C56.0369 15.0483 56.0582 15.2031 56.0602 15.3587V22.2932C56.0566 23.1285 56.2498 23.9527 56.6242 24.699C56.8873 25.2389 57.244 25.7276 57.6778 26.1424C57.3577 25.9339 57.0167 25.7597 56.6602 25.6228C56.2494 25.457 55.8118 25.3677 55.369 25.3593C54.9514 25.3593 54.1942 25.5566 53.0974 25.9511C52.6374 26.1283 52.1501 26.224 51.6574 26.2338C51.403 26.2393 51.15 26.1937 50.9134 26.0997C50.6769 26.0057 50.4614 25.8652 50.2798 25.6865C49.8798 25.2976 49.6798 24.7763 49.6798 24.1228C49.6798 23.4363 49.851 22.875 50.1934 22.4388C50.3518 22.2296 50.5576 22.0614 50.7939 21.948C51.0301 21.8346 51.29 21.7793 51.5518 21.7868C51.7536 21.7833 51.9543 21.8159 52.1446 21.883C52.159 22.0514 52.165 22.221 52.165 22.3906V22.7924C52.1704 23.0831 52.1032 23.3705 51.9694 23.6284C51.9374 23.6862 51.8996 23.7407 51.8566 23.7908C51.8133 23.8555 51.7549 23.9086 51.6866 23.9457C51.6182 23.9828 51.5419 24.0027 51.4642 24.0037H54.0754C54.046 24.0035 54.0166 24.0003 53.9878 23.9941C53.8568 23.9588 53.742 23.8794 53.6626 23.7691C53.5555 23.6259 53.4787 23.4621 53.437 23.288C53.3951 23.1253 53.3742 22.958 53.3746 22.79V12.4574C53.3746 11.8896 53.6002 11.4157 53.905 11.2834C53.9401 11.2685 53.9767 11.2577 54.0142 11.2509C54.0346 11.2497 54.055 11.2497 54.0754 11.2509L53.6398 11.2581ZM48.3598 14.1137C48.7111 13.7652 49.0944 13.4507 49.5046 13.1743C50.2797 12.6107 51.1658 12.2195 52.1038 12.0267V19.2247C51.8337 18.7353 51.5239 18.269 51.1774 17.8306C50.8366 17.4168 50.4524 17.0409 50.0314 16.7095C49.6641 16.4095 49.2719 16.1414 48.859 15.9084C48.4028 15.6596 47.9253 15.4522 47.4322 15.2889C47.7062 14.8705 48.0166 14.4772 48.3598 14.1137Z" fill="url(#paint0_linear_963_792)"/>
<path d="M65.9232 11.2587C65.9436 11.2575 65.964 11.2575 65.9844 11.2587C66.0219 11.2655 66.0585 11.2764 66.0936 11.2912C66.3984 11.4235 66.624 11.8926 66.624 12.4652V22.7978C66.6245 22.9658 66.6035 23.1331 66.5616 23.2958C66.52 23.4699 66.4432 23.6337 66.336 23.7769C66.2567 23.8872 66.1418 23.9667 66.0108 24.0019C65.982 24.0081 65.9527 24.0113 65.9232 24.0115H68.5344C68.4567 24.0105 68.3804 23.9906 68.312 23.9535C68.2437 23.9164 68.1853 23.8633 68.142 23.7986C68.099 23.7485 68.0612 23.6941 68.0292 23.6362C67.8954 23.3783 67.8282 23.0909 67.8336 22.8002V22.3985C67.8336 22.2289 67.8396 22.0593 67.854 21.8909C68.0443 21.8237 68.2451 21.7911 68.4468 21.7946C68.7087 21.7871 68.9685 21.8424 69.2048 21.9558C69.441 22.0692 69.6469 22.2374 69.8052 22.4466C70.1468 22.8812 70.318 23.4425 70.3188 24.1306C70.3188 24.7801 70.1188 25.3014 69.7188 25.6943C69.536 25.8717 69.3196 26.0107 69.0824 26.103C68.8452 26.1954 68.592 26.2392 68.3376 26.232C67.8449 26.2222 67.3576 26.1265 66.8976 25.9493C65.8008 25.5548 65.0436 25.3575 64.626 25.3575C64.1832 25.3659 63.7457 25.4552 63.3348 25.6209C62.9784 25.7579 62.6373 25.9321 62.3172 26.1406C62.751 25.7258 63.1078 25.2371 63.3708 24.6971C63.7452 23.9509 63.9384 23.1266 63.9348 22.2914V15.3617C63.9368 15.2061 63.9582 15.0513 63.9984 14.901C64.1004 14.5293 64.3116 14.2599 64.5636 14.1997H64.5768C64.6072 14.1931 64.6381 14.1895 64.6692 14.1889H61.9308C61.9524 14.1871 61.9741 14.1871 61.9956 14.1889C62.009 14.1905 62.0223 14.1934 62.0352 14.1973C62.2872 14.2563 62.4984 14.5257 62.6004 14.8962C62.6404 15.0442 62.6625 15.1964 62.6664 15.3497V23.1298C62.6723 23.6793 62.549 24.2224 62.3064 24.7152C62.019 25.28 61.5979 25.7657 61.08 26.1298C61.0584 26.143 61.0368 26.1562 61.014 26.1682C60.9912 26.1803 60.9432 26.2043 60.9072 26.2212C61.1724 26.3595 61.4023 26.557 61.5791 26.7985C61.756 27.04 61.8751 27.3191 61.9272 27.6141C61.9903 27.3276 62.133 27.0649 62.3388 26.8563C62.4827 26.722 62.6493 26.6145 62.8308 26.5387C63.17 26.4149 63.5297 26.3577 63.8904 26.3703C64.2784 26.3703 65.0568 26.5676 66.2256 26.9621C66.6881 27.128 67.1745 27.2174 67.6656 27.2268C68.0908 27.238 68.5139 27.1635 68.9097 27.0074C69.3055 26.8514 69.666 26.6172 69.9696 26.3186C70.2728 26.0297 70.5124 25.6805 70.673 25.2933C70.8335 24.9062 70.9116 24.4896 70.902 24.0704C70.9252 23.2751 70.64 22.5016 70.1064 21.9125C69.8554 21.6302 69.5462 21.406 69.2002 21.2554C68.8541 21.1048 68.4796 21.0315 68.1024 21.0404C68.0616 21.0404 68.0232 21.0476 67.9824 21.05C68.0268 20.8432 68.0784 20.6375 68.1432 20.433C68.4587 19.478 68.9696 18.5996 69.6432 17.854C70.0662 17.3827 70.5539 16.9741 71.0916 16.6403C71.6642 16.2897 72.2755 16.0071 72.9132 15.7983C73.2725 16.4386 73.5695 17.1121 73.8 17.8095C74.1044 18.6857 74.2664 19.6052 74.28 20.5328C74.28 21.4061 74.2608 22.0424 74.2224 22.449C74.2224 22.4718 74.2224 22.4971 74.2224 22.5187C74.1633 23.1663 74.0012 23.8002 73.7424 24.3964C73.671 24.5471 73.5832 24.6895 73.4808 24.821C73.0956 25.3515 72.648 25.7148 72.2688 25.823L72.228 25.8351L74.6808 27.0872C74.5241 26.5881 74.4742 26.0614 74.5344 25.5416C74.5344 25.4874 74.5464 25.4333 74.5536 25.3804C74.5692 25.2541 74.5872 25.1181 74.6076 24.969C74.7172 24.3435 74.8172 23.724 74.9076 23.1106C74.9956 22.5377 75.0414 21.9592 75.0444 21.3796C75.0438 20.2669 74.899 19.1591 74.6136 18.0838C74.3993 17.2212 74.072 16.3908 73.6404 15.6143C73.7748 15.5902 73.9152 15.5686 74.064 15.5505C74.2346 15.5315 74.4061 15.5226 74.5776 15.5241C74.9409 15.525 75.303 15.5654 75.6576 15.6444C76.0061 15.7157 76.3377 15.8533 76.6344 16.0497C76.6764 16.0774 76.716 16.1063 76.7544 16.1351C76.9766 16.2935 77.1316 16.5295 77.1888 16.7967C77.2011 16.8577 77.2079 16.9197 77.2092 16.9819C77.217 17.1415 77.1613 17.2975 77.0543 17.4159C76.9473 17.5342 76.7978 17.605 76.6386 17.6129C76.4795 17.6207 76.3238 17.5648 76.2058 17.4575C76.0877 17.3503 76.017 17.2004 76.0092 17.0409C75.9832 17.1989 75.9896 17.3606 76.0278 17.516C76.0661 17.6715 76.1355 17.8176 76.2318 17.9454C76.3282 18.0731 76.4494 18.1799 76.5882 18.2592C76.727 18.3386 76.8804 18.3888 77.0391 18.4068C77.1979 18.4249 77.3586 18.4104 77.5116 18.3642C77.6646 18.318 77.8066 18.2412 77.9291 18.1383C78.0515 18.0354 78.1518 17.9086 78.2238 17.7656C78.2958 17.6227 78.3381 17.4666 78.348 17.3067C78.348 17.2851 78.348 17.2622 78.348 17.2394C78.348 17.2394 78.348 17.2321 78.348 17.2285C78.348 17.2249 78.348 17.2201 78.348 17.2153C78.348 16.5898 78.0084 16.0706 77.3292 15.6576C76.8644 15.378 76.3537 15.1837 75.8208 15.0838C75.7668 15.073 75.7104 15.0646 75.6528 15.055C75.5052 15.0333 75.3456 15.0153 75.1728 15.002C74.9328 14.984 74.6928 14.9744 74.4456 14.9744C74.0591 14.9652 73.6727 14.9958 73.2924 15.0658C72.4124 13.899 71.4384 12.9968 70.3704 12.3593C69.6806 11.945 68.9303 11.6414 68.1468 11.4596C68.0412 11.4355 67.9356 11.4127 67.83 11.3922C67.4306 11.3188 67.0263 11.2757 66.6204 11.2635C66.5328 11.2635 66.4464 11.2635 66.3576 11.2635L65.9232 11.2587ZM71.142 15.9054C70.7292 16.1384 70.3369 16.4064 69.9696 16.7065C69.5486 17.0379 69.1644 17.4138 68.8236 17.8276C68.4772 18.266 68.1673 18.7323 67.8972 19.2217V12.0237C68.8352 12.2165 69.7214 12.6077 70.4964 13.1713C70.9064 13.4489 71.2893 13.7646 71.64 14.1143C71.9833 14.4778 72.2937 14.8711 72.5676 15.2895C72.075 15.4517 71.5979 15.6579 71.142 15.9054Z" fill="url(#paint1_linear_963_792)"/>
<path d="M66.3595 44.6547C66.4483 44.6547 66.5347 44.6547 66.6223 44.6487C67.0282 44.637 67.4326 44.594 67.8319 44.5199C67.9375 44.5007 68.0431 44.4778 68.1487 44.4538C68.9321 44.271 69.6823 43.9671 70.3723 43.5528C71.4403 42.9113 72.4143 42.0096 73.2943 40.8476C73.6747 40.9164 74.061 40.9467 74.4475 40.9378C74.6971 40.9378 74.9383 40.9294 75.1747 40.9113C75.3451 40.8981 75.5047 40.8801 75.6547 40.8572C75.7123 40.8488 75.7687 40.8392 75.8227 40.8283C76.3557 40.7291 76.8666 40.5347 77.3311 40.2546C78.0103 39.8416 78.3499 39.3224 78.3499 38.6969C78.3499 38.6969 78.3499 38.6884 78.3499 38.6836C78.3499 38.6788 78.3499 38.6764 78.3499 38.674C78.3499 38.65 78.3499 38.6283 78.3499 38.6054C78.3426 38.4436 78.3022 38.285 78.2312 38.1394C78.1602 37.9939 78.0601 37.8645 77.9371 37.7593C77.8142 37.6542 77.671 37.5755 77.5164 37.5281C77.3618 37.4807 77.1992 37.4657 77.0386 37.4839C76.878 37.5022 76.7228 37.5533 76.5828 37.6342C76.4427 37.7151 76.3207 37.8239 76.2244 37.954C76.128 38.0841 76.0594 38.2326 76.0227 38.3904C75.986 38.5482 75.9821 38.7119 76.0111 38.8713C76.0189 38.7118 76.0896 38.5619 76.2076 38.4546C76.3257 38.3474 76.4814 38.2915 76.6405 38.2993C76.7996 38.3071 76.9491 38.378 77.0561 38.4963C77.1632 38.6146 77.2189 38.7707 77.2111 38.9302C77.2099 38.9925 77.2031 39.0545 77.1907 39.1155C77.1338 39.3828 76.9787 39.6189 76.7563 39.777C76.7203 39.8059 76.6807 39.8348 76.6363 39.8636C76.339 40.0591 76.0076 40.1966 75.6595 40.269C75.3049 40.348 74.9428 40.3883 74.5795 40.3893C74.4079 40.3904 74.2364 40.3811 74.0659 40.3616C73.9171 40.3436 73.7767 40.3219 73.6423 40.2979C74.0737 39.5217 74.4009 38.6917 74.6155 37.8296C74.899 36.7561 75.0426 35.6503 75.0427 34.5398C75.0396 33.9602 74.9939 33.3816 74.9059 32.8088C74.8147 32.1954 74.7147 31.5759 74.6059 30.9504C74.5855 30.8012 74.5675 30.6653 74.5519 30.539C74.5447 30.4861 74.5375 30.4332 74.5327 30.3778C74.4697 29.8556 74.5179 29.3259 74.6743 28.8237L72.2215 30.0771C72.2354 30.08 72.249 30.084 72.2623 30.0891C72.6415 30.1962 73.0891 30.5595 73.4743 31.0899C73.577 31.2213 73.6647 31.3637 73.7359 31.5145C73.9948 32.1103 74.1569 32.7439 74.2159 33.391C74.2159 33.4127 74.2159 33.4379 74.2159 33.462C74.2543 33.8674 74.2735 34.5037 74.2735 35.377C74.2598 36.305 74.0977 37.2248 73.7935 38.1014C73.5647 38.7995 73.2693 39.4738 72.9115 40.115C72.2737 39.9062 71.6624 39.6237 71.0899 39.273C70.5511 38.9394 70.0629 38.5298 69.6403 38.0569C68.9669 37.3116 68.456 36.4337 68.1403 35.4792C68.0755 35.2747 68.0203 35.069 67.9795 34.8621C68.0203 34.8621 68.0587 34.8705 68.0995 34.8705C68.4765 34.8797 68.8511 34.8066 69.1971 34.6562C69.5432 34.5059 69.8525 34.2818 70.1035 33.9997C70.6371 33.4105 70.9222 32.6371 70.8991 31.8417C70.9088 31.4223 70.8308 31.0056 70.6703 30.6182C70.5097 30.2308 70.27 29.8814 69.9667 29.5924C69.6629 29.294 69.3024 29.0599 68.9066 28.9039C68.5108 28.7479 68.0878 28.6732 67.6627 28.6842C67.1716 28.6941 66.6853 28.7835 66.2227 28.9488C65.0539 29.3434 64.2755 29.5406 63.8875 29.5406C63.5268 29.5532 63.167 29.4961 62.8279 29.3722C62.6467 29.2964 62.4802 29.1893 62.3359 29.0559C62.1303 28.8466 61.9877 28.5836 61.9243 28.2969C61.872 28.592 61.7528 28.8711 61.576 29.1128C61.3991 29.3545 61.1694 29.5523 60.9043 29.691C60.9403 29.7066 60.9751 29.7235 61.0111 29.7427C61.0471 29.762 61.0555 29.7692 61.0771 29.7824C61.5951 30.1461 62.0158 30.6319 62.3023 31.197C62.5452 31.6896 62.6686 32.2329 62.6623 32.7824V40.5613C62.6586 40.7146 62.6364 40.8668 62.5963 41.0148C62.4943 41.3853 62.2831 41.6547 62.0311 41.7137L61.9915 41.7233C61.9699 41.7245 61.9483 41.7245 61.9267 41.7233H64.6795C64.6484 41.7233 64.6174 41.7197 64.5871 41.7125C64.5827 41.713 64.5783 41.713 64.5739 41.7125C64.3219 41.6523 64.1107 41.3829 64.0087 41.0124C63.9684 40.8625 63.9471 40.7081 63.9451 40.5529V33.6244C63.9487 32.7891 63.7555 31.9648 63.3811 31.2186C63.118 30.6787 62.7613 30.1899 62.3275 29.7752C62.647 29.9846 62.9882 30.1588 63.3451 30.2948C63.7559 30.4609 64.1934 30.5506 64.6363 30.5595C65.0539 30.5595 65.8111 30.3618 66.9079 29.9665C67.3681 29.7898 67.8552 29.6942 68.3479 29.6838C68.601 29.6785 68.8526 29.7237 69.0881 29.8168C69.3236 29.91 69.5382 30.0492 69.7195 30.2263C70.1195 30.6144 70.3195 31.1336 70.3195 31.784C70.3195 32.4704 70.1483 33.0318 69.8059 33.468C69.6475 33.677 69.4416 33.8451 69.2053 33.9583C68.969 34.0715 68.7092 34.1265 68.4475 34.1188C68.2458 34.1223 68.045 34.0897 67.8547 34.0225C67.8403 33.8541 67.8343 33.6857 67.8343 33.5161V33.1132C67.8289 32.8225 67.8961 32.5351 68.0299 32.2772C68.0619 32.2193 68.0997 32.1649 68.1427 32.1148C68.2241 32.0081 68.3414 31.9346 68.4727 31.9079C68.4933 31.9041 68.5142 31.9021 68.5351 31.9019H65.9227C65.9522 31.9024 65.9815 31.9061 66.0103 31.9127C66.1415 31.9475 66.2565 32.027 66.3355 32.1376C66.4428 32.2808 66.5196 32.4446 66.5611 32.6188C66.6028 32.7815 66.6238 32.9488 66.6235 33.1168V43.4494C66.6235 44.0171 66.3979 44.4923 66.0931 44.6234C66.0582 44.6388 66.0215 44.6497 65.9839 44.6559C65.9635 44.6577 65.9431 44.6577 65.9227 44.6559L66.3595 44.6547ZM71.6395 41.8039C71.2878 42.1516 70.9046 42.4657 70.4947 42.7421C69.7199 43.3062 68.8337 43.6974 67.8955 43.8896V36.6929C68.1659 37.1821 68.4757 37.6484 68.8219 38.087C69.1627 38.5004 69.5469 38.8759 69.9679 39.2069C70.3352 39.5073 70.7274 39.7757 71.1403 40.0092C71.5967 40.2575 72.0742 40.4648 72.5671 40.6287C72.2928 41.0469 71.9824 41.4401 71.6395 41.8039Z" fill="url(#paint2_linear_963_792)"/>
<path d="M54.0768 44.6562C54.0565 44.658 54.036 44.658 54.0156 44.6562C53.978 44.65 53.9413 44.6391 53.9064 44.6237C53.6016 44.4926 53.376 44.0223 53.376 43.4497V33.1171C53.3758 32.9491 53.3967 32.7818 53.4384 32.6191C53.4799 32.4449 53.5567 32.2811 53.664 32.1379C53.743 32.0273 53.858 31.9478 53.9892 31.913C54.018 31.9064 54.0473 31.9027 54.0768 31.9022H51.4656C51.4866 31.9024 51.5074 31.9044 51.528 31.9082C51.6594 31.9349 51.7766 32.0084 51.858 32.1151C51.9011 32.1652 51.9389 32.2196 51.9708 32.2775C52.1046 32.5354 52.1719 32.8228 52.1664 33.1135V33.5164C52.1664 33.686 52.1604 33.8544 52.146 34.0228C51.9557 34.09 51.755 34.1226 51.5532 34.1191C51.2915 34.1268 51.0317 34.0718 50.7954 33.9586C50.5592 33.8454 50.3533 33.6773 50.1948 33.4683C49.8524 33.0337 49.6812 32.4723 49.6812 31.7843C49.6812 31.1347 49.8812 30.6155 50.2812 30.2266C50.4641 30.0492 50.6804 29.9102 50.9176 29.8178C51.1548 29.7255 51.4081 29.6817 51.6624 29.6889C52.1551 29.6993 52.6422 29.795 53.1024 29.9716C54.1992 30.3661 54.9564 30.5638 55.374 30.5646C55.8169 30.5557 56.2544 30.466 56.6652 30.2999C57.0221 30.164 57.3633 29.9897 57.6828 29.7803C57.2491 30.1951 56.8923 30.6838 56.6292 31.2237C56.2549 31.97 56.0616 32.7942 56.0652 33.6295V40.558C56.0633 40.7132 56.0419 40.8676 56.0016 41.0175C55.8996 41.388 55.6884 41.6574 55.4364 41.7176C55.4321 41.7181 55.4276 41.7181 55.4232 41.7176C55.393 41.7248 55.362 41.7284 55.3308 41.7284H58.074C58.0525 41.7296 58.0308 41.7296 58.0092 41.7284L57.9696 41.7188C57.7176 41.6598 57.5064 41.3904 57.4044 41.0199C57.3643 40.8719 57.3422 40.7197 57.3384 40.5664V32.7887C57.3322 32.2392 57.4555 31.696 57.6984 31.2033C57.9856 30.6369 58.4076 30.1502 58.9272 29.7863C58.9488 29.7731 58.9704 29.7587 58.9932 29.7466C59.016 29.7346 59.064 29.7105 59.1 29.6949C58.835 29.5562 58.6052 29.3584 58.4284 29.1167C58.2515 28.875 58.1324 28.5959 58.08 28.3008C58.0167 28.5875 57.874 28.8505 57.6684 29.0598C57.5241 29.1932 57.3576 29.3003 57.1764 29.3761C56.8373 29.5 56.4775 29.5571 56.1168 29.5445C55.7288 29.5445 54.9504 29.3473 53.7816 28.9527C53.319 28.7874 52.8327 28.698 52.3416 28.6881C51.9165 28.6771 51.4935 28.7518 51.0977 28.9078C50.7019 29.0638 50.3414 29.2979 50.0376 29.5963C49.7343 29.8853 49.4946 30.2347 49.3341 30.6221C49.1735 31.0095 49.0955 31.4262 49.1052 31.8456C49.0821 32.641 49.3672 33.4144 49.9008 34.0036C50.1519 34.2857 50.4612 34.5098 50.8072 34.6601C51.1532 34.8105 51.5278 34.8837 51.9048 34.8745C51.9456 34.8745 51.984 34.8672 52.0248 34.866C51.9804 35.0729 51.9288 35.2786 51.864 35.4831C51.5483 36.4376 51.0374 37.3155 50.364 38.0608C49.9415 38.5337 49.4533 38.9433 48.9144 39.2769C48.3419 39.6276 47.7306 39.9101 47.0928 40.119C46.7314 39.4785 46.4324 38.8046 46.2 38.1066C45.8958 37.2299 45.7337 36.3101 45.72 35.3821C45.72 34.5088 45.7392 33.8725 45.7776 33.4671C45.7776 33.443 45.7776 33.4178 45.7836 33.3961C45.8427 32.749 46.0047 32.1154 46.2636 31.5197C46.3348 31.3688 46.4226 31.2264 46.5252 31.095H46.5192C46.9044 30.5646 47.352 30.2013 47.7312 30.0943C47.7445 30.0891 47.7581 30.0851 47.772 30.0822L45.324 28.8252C45.4804 29.3274 45.5286 29.8571 45.4656 30.3793C45.4656 30.4347 45.4536 30.4876 45.4464 30.5405C45.4308 30.6608 45.4128 30.8027 45.3924 30.9519C45.2828 31.5774 45.1828 32.1969 45.0924 32.8103C45.0044 33.3831 44.9587 33.9617 44.9556 34.5413C44.9557 35.6518 45.0993 36.7576 45.3828 37.8311C45.5974 38.6932 45.9246 39.5232 46.356 40.2994C46.2216 40.3234 46.0812 40.3451 45.9324 40.3631C45.7619 40.3826 45.5904 40.3919 45.4188 40.3908C45.0556 40.3898 44.6935 40.3495 44.3388 40.2705C43.9907 40.1981 43.6593 40.0606 43.362 39.8651C43.32 39.8363 43.2804 39.8074 43.242 39.7785C43.0196 39.6204 42.8645 39.3843 42.8076 39.117C42.7953 39.056 42.7884 38.994 42.7872 38.9317C42.7794 38.7722 42.8352 38.6161 42.9422 38.4978C43.0492 38.3795 43.1987 38.3086 43.3578 38.3008C43.517 38.293 43.6727 38.3489 43.7907 38.4561C43.9087 38.5634 43.9794 38.7133 43.9872 38.8728C44.0132 38.7148 44.0069 38.5531 43.9686 38.3976C43.9304 38.2421 43.861 38.0961 43.7646 37.9683C43.6683 37.8406 43.5471 37.7338 43.4083 37.6544C43.2695 37.5751 43.1161 37.5249 42.9573 37.5069C42.7986 37.4888 42.6378 37.5033 42.4848 37.5495C42.3319 37.5956 42.1898 37.6725 42.0674 37.7754C41.945 37.8783 41.8447 38.0051 41.7727 38.148C41.7007 38.291 41.6584 38.4471 41.6484 38.6069C41.6484 38.6298 41.6484 38.6515 41.6484 38.6755C41.6484 38.6755 41.6484 38.6755 41.6484 38.6851C41.6484 38.6948 41.6484 38.6936 41.6484 38.6984C41.6484 39.3239 41.988 39.8431 42.6672 40.2561C43.1318 40.5362 43.6427 40.7306 44.1756 40.8298C44.2296 40.8407 44.286 40.8503 44.3436 40.8587C44.4912 40.8816 44.6508 40.8996 44.8236 40.9128C45.0636 40.9309 45.3036 40.9393 45.5508 40.9393C45.9373 40.9482 46.3236 40.9179 46.704 40.8491C47.584 42.0143 48.558 42.916 49.626 43.5543C50.3161 43.9686 51.0663 44.2725 51.8496 44.4553C51.9552 44.4793 52.0608 44.5022 52.1664 44.5214C52.5657 44.5955 52.9701 44.6385 53.376 44.6502C53.4636 44.6502 53.55 44.6562 53.6388 44.6562H54.0768ZM52.1028 43.8911C51.1649 43.6997 50.2786 43.3092 49.5036 42.746C49.0938 42.4696 48.7105 42.1555 48.3588 41.8078C48.0159 41.444 47.7055 41.0508 47.4312 40.6326C47.9242 40.4687 48.4016 40.2614 48.858 40.0131C49.2709 39.7796 49.6631 39.5112 50.0304 39.2108C50.4514 38.8798 50.8356 38.5043 51.1764 38.0909C51.5226 37.6523 51.8324 37.186 52.1028 36.6968V43.8911Z" fill="url(#paint3_linear_963_792)"/>
<path d="M59.9999 28.6555C60.385 28.6555 60.6971 28.3427 60.6971 27.9567C60.6971 27.5707 60.385 27.2578 59.9999 27.2578C59.6149 27.2578 59.3027 27.5707 59.3027 27.9567C59.3027 28.3427 59.6149 28.6555 59.9999 28.6555Z" fill="url(#paint4_linear_963_792)"/>
<path d="M37.3398 77.9594H38.1606L42.4614 66.8594H43.347L47.9454 77.9594H48.723V78.5609H44.5698V77.9594H45.7206L44.6226 75.2915H39.987L38.9802 77.9594H40.353V78.5609H37.3398V77.9594ZM44.3718 74.6961L42.2058 69.4131L40.215 74.6961H44.3718Z" fill="white"/>
<path d="M49.5762 77.9522H51.2082L51.2154 67.4488H49.9338V66.8594H54.6246V67.4488H53.2674V77.9522H55.6014C56.9382 77.9522 57.749 77.3339 58.0338 76.0974C58.116 75.7357 58.1693 75.3681 58.1934 74.998H58.7934V78.5561H49.5762V77.9522Z" fill="white"/>
<path d="M60.1582 77.9522H61.7902L61.7974 67.4488H60.517V66.8594H65.2066V67.4488H63.8494V77.9522H66.1834C67.5202 77.9522 68.331 77.3339 68.6158 76.0974C68.6978 75.7357 68.7516 75.3681 68.7766 74.998H69.3766V78.5561H60.1582V77.9522Z" fill="white"/>
<path d="M70.3584 77.9594H71.1828L75.48 66.8594H76.3644L80.964 77.9594H81.7416V78.5609H77.5884V77.9594H78.7332L77.64 75.2915H73.0056L72 77.9594H73.3728V78.5609H70.3584V77.9594ZM77.3904 74.6961L75.2304 69.4131L73.2396 74.6961H77.3904Z" fill="white"/>
<path d="M0 97.2533H1.4496L1.4568 86.7499H0V86.1484H5.0712V86.7499H3.5112V92.0774L8.8644 86.7499H7.7256V86.1484H11.1348V86.7499H9.8004L5.6208 90.9082L10.7916 97.2533H11.8716V97.8547H7.0716V97.2533H8.1924L4.2636 92.2542L3.5088 93.0024V97.2533H5.0688V97.8547H0V97.2533Z" fill="white"/>
<path d="M13.4954 86.7499H12.4502V86.1484H16.661V86.7499H15.5474V93.7385C15.5474 95.5637 16.0674 96.6463 17.1074 96.9863C17.4336 97.0937 17.7744 97.1497 18.1178 97.1523C18.4032 97.1548 18.6886 97.1399 18.9722 97.1078C19.2178 97.0761 19.4593 97.0176 19.6922 96.9333C20.2376 96.7255 20.7009 96.3455 21.0122 95.8508C21.3554 95.3279 21.527 94.5813 21.527 93.611V86.7547H20.3378V86.1532H23.3882V86.7547H22.2746V93.7193C22.2746 95.1122 21.9086 96.1511 21.1766 96.8359C20.4446 97.5207 19.4506 97.8628 18.1946 97.862C15.829 97.862 14.3442 96.9766 13.7402 95.206C13.5666 94.6522 13.4855 94.0735 13.5002 93.4931L13.4954 86.7499Z" fill="white"/>
<path d="M25.0605 96.9502L32.3133 86.7451H28.9197C27.9381 86.7451 27.2773 86.9487 26.9373 87.3561C26.5973 87.7635 26.3885 88.4796 26.3109 89.5044H25.6101V86.1484H34.4793V87.0277L27.3261 97.2521H31.6953C32.6721 97.2521 33.3281 96.9923 33.6633 96.4726C33.9033 96.1062 34.0357 95.451 34.0605 94.5072H34.7697V97.8487H25.0605V96.9502Z" fill="white"/>
<path d="M36.5879 97.2533H37.9199V86.7499H36.5879V86.1484H40.0427L46.2203 95.36V86.7499H44.7407V86.1484H48.3599V86.7499H46.9679V97.8499H45.5495L38.6627 87.7049V97.2533H40.2107V97.8547H36.5879V97.2533Z" fill="white"/>
<path d="M49.5957 97.2461H51.1197L51.1269 86.7499H49.5957V86.1484H59.4561V89.5598H58.8561C58.8297 89.1135 58.7949 88.7178 58.7493 88.3701C58.7147 88.0588 58.6158 87.7581 58.4589 87.4872C58.1637 86.9916 57.5637 86.7443 56.6589 86.7451H53.1789V91.5457H55.0857C55.5177 91.5457 55.8493 91.4795 56.0805 91.3472C56.3121 91.2149 56.4525 90.9864 56.5041 90.6508C56.5137 90.5557 56.5233 90.4535 56.5305 90.3452C56.5377 90.237 56.5473 90.1299 56.5569 90.0241H57.1977V93.9695H56.5569C56.5473 93.8492 56.5377 93.7037 56.5305 93.5425C56.5233 93.3813 56.5137 93.2478 56.5041 93.1395C56.4525 92.7702 56.3097 92.5104 56.0733 92.3637C55.8369 92.2169 55.5069 92.1423 55.0857 92.1423H53.1801V97.2413H56.4441C57.7809 97.2413 58.5917 96.6399 58.8765 95.437C58.9597 95.088 59.0143 94.7328 59.0397 94.3748H59.6337V97.8499H49.5957V97.2461Z" fill="white"/>
<path d="M64.2189 97.2485H65.7369L65.7441 86.7836H64.3257C63.4865 86.7836 62.9017 87.0702 62.5713 87.6436C62.3169 88.0823 62.1669 88.8108 62.1213 89.8292H61.5273V86.1484H72.0057V89.828H71.4057C71.3601 88.8208 71.2077 88.0923 70.9485 87.6424C70.6189 87.0698 70.0369 86.7832 69.2025 86.7824H67.7997V97.2473H69.3249V97.8487H64.2189V97.2485Z" fill="white"/>
<path d="M75.1201 96.8402C74.904 97.13 74.7938 97.4855 74.8081 97.847H74.1289V94.728H74.9149C75.1031 95.4567 75.5416 96.0956 76.1533 96.5323C76.7821 96.9934 77.5421 97.2236 78.4333 97.2228C79.5453 97.2228 80.2901 96.922 80.6677 96.3206C80.7902 96.1132 80.8533 95.876 80.8501 95.635C80.8533 95.375 80.8028 95.1171 80.7018 94.8776C80.6008 94.6381 80.4515 94.4222 80.2633 94.2433C79.8745 93.8543 79.2041 93.4883 78.2521 93.145C77.51 92.8957 76.7905 92.583 76.1017 92.2104C75.6749 91.9741 75.2874 91.6726 74.9533 91.3167C74.4597 90.7658 74.2133 90.044 74.2141 89.1515C74.2149 88.259 74.6077 87.5337 75.3925 86.9755C76.1773 86.4198 77.1317 86.1419 78.2557 86.1419C78.8043 86.1296 79.3514 86.2039 79.8769 86.3621C80.2452 86.4691 80.5903 86.6441 80.8945 86.8781C81.0176 86.6544 81.0858 86.4045 81.0937 86.1492H81.8029V88.9927H81.0709C81.0461 88.6663 80.9486 88.3495 80.7856 88.0658C80.6226 87.782 80.3982 87.5386 80.1289 87.3532C79.565 86.964 78.8934 86.7621 78.2089 86.7759C77.4889 86.7759 76.8981 86.921 76.4365 87.2113C75.9749 87.5016 75.7461 87.8977 75.7501 88.3997C75.7501 88.9017 75.9637 89.3428 76.3909 89.7229C76.8181 90.103 77.6901 90.5749 79.0069 91.1387C80.2421 91.6302 81.1037 92.1282 81.5917 92.6326C81.8321 92.8787 82.0207 93.1706 82.1464 93.491C82.2722 93.8115 82.3325 94.154 82.3237 94.4983C82.3237 95.5407 81.9489 96.3615 81.1993 96.9605C80.4497 97.5596 79.5433 97.8575 78.4801 97.8543C77.4145 97.8543 76.4877 97.6454 75.6997 97.2276C75.4923 97.1212 75.2978 96.9912 75.1201 96.8402Z" fill="white"/>
<path d="M84.7506 94.8761C84.5363 94.4341 84.3752 93.9682 84.2706 93.488C84.1619 93.0008 84.1072 92.503 84.1074 92.0037C84.1067 91.5091 84.1614 91.0161 84.2706 90.5338C84.3764 90.0602 84.5375 89.6007 84.7506 89.1649C85.192 88.2624 85.8777 87.5026 86.7294 86.9721C87.6014 86.4204 88.6502 86.1445 89.8758 86.1445C91.7366 86.1445 93.1934 86.7512 94.2462 87.9645C95.1862 89.0583 95.6562 90.4107 95.6562 92.0217C95.6562 93.6328 95.181 94.9856 94.2306 96.0802C93.5802 96.826 92.7234 97.3432 91.6602 97.6319C90.4991 97.9278 89.2826 97.9278 88.1214 97.6319C87.6147 97.4966 87.1299 97.2897 86.6814 97.0173C86.2617 96.7601 85.8824 96.4418 85.5558 96.073C85.2354 95.7118 84.9646 95.3093 84.7506 94.8761ZM92.6286 95.4884C92.8621 95.049 93.0499 94.5866 93.189 94.1087C93.371 93.5247 93.4625 92.9162 93.4602 92.3044C93.4664 91.775 93.4371 91.2457 93.3726 90.7202C93.3167 90.3123 93.226 89.9098 93.1014 89.5174C92.8749 88.7637 92.4587 88.081 91.893 87.535C91.3562 87.0371 90.6838 86.7881 89.8758 86.7881C88.615 86.7881 87.677 87.3386 87.0618 88.4396C86.537 89.3867 86.2838 90.5631 86.3022 91.9688C86.3206 93.3746 86.5838 94.551 87.0918 95.498C87.7222 96.6528 88.6398 97.2306 89.8446 97.2314C91.0494 97.2322 91.9774 96.6512 92.6286 95.4884Z" fill="white"/>
<path d="M97.4821 86.7499H96.4609V86.1484H101.341V86.7499H99.8701L103.248 95.4262L106.421 86.7499H104.981V86.1484H108.413V86.7499H107.244L103.012 98.0027H102.36L97.4821 86.7499Z" fill="white"/>
<path d="M108.613 97.2485H109.44L113.741 86.1484H114.625L119.225 97.2485H120V97.8499H115.843V97.2485H116.988L115.889 94.5866H111.26L110.254 97.2545H111.626V97.8559H108.613V97.2485ZM115.645 93.9851L113.479 88.7033L111.488 93.9851H115.645Z" fill="white"/>
</g>
<defs>
<linearGradient id="paint0_linear_963_792" x1="41.6506" y1="19.4352" x2="59.0986" y2="19.4352" gradientUnits="userSpaceOnUse">
<stop stop-color="#FFC478"/>
<stop offset="0.91" stop-color="#FFC478"/>
<stop offset="1" stop-color="#FFC478"/>
</linearGradient>
<linearGradient id="paint1_linear_963_792" x1="60.9012" y1="19.4358" x2="78.3492" y2="19.4358" gradientUnits="userSpaceOnUse">
<stop stop-color="#FFC478"/>
<stop offset="0.91" stop-color="#FFC478"/>
<stop offset="1" stop-color="#FFC478"/>
</linearGradient>
<linearGradient id="paint2_linear_963_792" x1="60.9007" y1="36.4776" x2="78.3487" y2="36.4776" gradientUnits="userSpaceOnUse">
<stop stop-color="#FFC478"/>
<stop offset="0.91" stop-color="#FFC478"/>
<stop offset="1" stop-color="#FFC478"/>
</linearGradient>
<linearGradient id="paint3_linear_963_792" x1="41.6508" y1="36.4791" x2="59.0988" y2="36.4791" gradientUnits="userSpaceOnUse">
<stop stop-color="#FFC478"/>
<stop offset="0.91" stop-color="#FFC478"/>
<stop offset="1" stop-color="#FFC478"/>
</linearGradient>
<linearGradient id="paint4_linear_963_792" x1="59.3027" y1="27.9567" x2="60.6971" y2="27.9567" gradientUnits="userSpaceOnUse">
<stop stop-color="#FFC478"/>
<stop offset="0.91" stop-color="#FFC478"/>
<stop offset="1" stop-color="#FFC478"/>
</linearGradient>
<clipPath id="clip0_963_792">
<rect width="120" height="98" fill="white"/>
</clipPath>
</defs>
</svg>
