<svg width="40" height="40" viewBox="0 0 40 40" fill="none" xmlns="http://www.w3.org/2000/svg">
<g id="vuesax/bold/medal">
<g id="vuesax/bold/medal_2">
<g id="medal">
<path id="Vector" d="M20 24.9987C26.2132 24.9987 31.25 20.1484 31.25 14.1654C31.25 8.18228 26.2132 3.33203 20 3.33203C13.7868 3.33203 8.75 8.18228 8.75 14.1654C8.75 20.1484 13.7868 24.9987 20 24.9987Z" fill="url(#paint0_linear_436_3063)"/>
<path id="Vector_2" d="M26.3167 26.0165C26.8667 25.7331 27.5 26.1498 27.5 26.7665V34.8498C27.5 36.3498 26.45 37.0831 25.15 36.4665L20.6833 34.3498C20.3 34.1831 19.7 34.1831 19.3167 34.3498L14.85 36.4665C13.55 37.0665 12.5 36.3331 12.5 34.8331L12.5333 26.7665C12.5333 26.1498 13.1833 25.7498 13.7167 26.0165C15.6 26.9665 17.7333 27.4998 20 27.4998C22.2667 27.4998 24.4167 26.9665 26.3167 26.0165Z" fill="url(#paint1_linear_436_3063)"/>
</g>
</g>
</g>
<defs>
<linearGradient id="paint0_linear_436_3063" x1="30.2574" y1="37.2765" x2="6.64333" y2="33.4157" gradientUnits="userSpaceOnUse">
<stop offset="0.00219421" stop-color="#E2B45C"/>
<stop offset="1" stop-color="#FDDC7F"/>
</linearGradient>
<linearGradient id="paint1_linear_436_3063" x1="26.8382" y1="42.7823" x2="11.4176" y2="39.3976" gradientUnits="userSpaceOnUse">
<stop offset="0.00219421" stop-color="#E2B45C"/>
<stop offset="1" stop-color="#FDDC7F"/>
</linearGradient>
</defs>
</svg>
