<svg width="40" height="40" viewBox="0 0 40 40" fill="none" xmlns="http://www.w3.org/2000/svg">
<g id="vuesax/bold/people">
<g id="vuesax/bold/people_2">
<g id="people">
<path id="Vector" d="M29.2167 12.9487C29.1001 12.932 28.9834 12.932 28.8667 12.9487C26.2834 12.8654 24.2334 10.7487 24.2334 8.1487C24.2334 5.4987 26.3834 3.33203 29.0501 3.33203C31.7001 3.33203 33.8667 5.48203 33.8667 8.1487C33.8501 10.7487 31.8001 12.8654 29.2167 12.9487Z" fill="url(#paint0_linear_436_2972)"/>
<path id="Vector_2" d="M34.6503 24.5007C32.7837 25.7507 30.167 26.2173 27.7503 25.9007C28.3837 24.534 28.717 23.0173 28.7337 21.4173C28.7337 19.7507 28.367 18.1673 27.667 16.784C30.1337 16.4507 32.7503 16.9173 34.6337 18.1673C37.267 19.9007 37.267 22.7507 34.6503 24.5007Z" fill="url(#paint1_linear_436_2972)"/>
<path id="Vector_3" d="M10.7329 12.9487C10.8496 12.932 10.9663 12.932 11.0829 12.9487C13.6663 12.8654 15.7163 10.7487 15.7163 8.1487C15.7163 5.48203 13.5663 3.33203 10.8996 3.33203C8.24961 3.33203 6.09961 5.48203 6.09961 8.1487C6.09961 10.7487 8.14961 12.8654 10.7329 12.9487Z" fill="url(#paint2_linear_436_2972)"/>
<path id="Vector_4" d="M10.9169 21.4177C10.9169 23.0343 11.2669 24.5677 11.9002 25.951C9.5502 26.201 7.1002 25.701 5.3002 24.5177C2.66686 22.7677 2.66686 19.9177 5.3002 18.1677C7.08353 16.9677 9.60019 16.4843 11.9669 16.751C11.2835 18.151 10.9169 19.7343 10.9169 21.4177Z" fill="url(#paint3_linear_436_2972)"/>
<path id="Vector_5" d="M20.2 26.45C20.0667 26.4333 19.9167 26.4333 19.7667 26.45C16.7 26.35 14.25 23.8333 14.25 20.7333C14.2667 17.5667 16.8167 15 20 15C23.1667 15 25.7333 17.5667 25.7333 20.7333C25.7167 23.8333 23.2833 26.35 20.2 26.45Z" fill="url(#paint4_linear_436_2972)"/>
<path id="Vector_6" d="M14.783 29.8984C12.2663 31.5818 12.2663 34.3484 14.783 36.0151C17.6497 37.9318 22.3497 37.9318 25.2163 36.0151C27.733 34.3318 27.733 31.5651 25.2163 29.8984C22.3663 27.9818 17.6663 27.9818 14.783 29.8984Z" fill="url(#paint5_linear_436_2972)"/>
</g>
</g>
</g>
<defs>
<linearGradient id="paint0_linear_436_2972" x1="33.4417" y1="18.3981" x2="23.3131" y2="16.8007" gradientUnits="userSpaceOnUse">
<stop offset="0.00219421" stop-color="#E2B45C"/>
<stop offset="1" stop-color="#FDDC7F"/>
</linearGradient>
<linearGradient id="paint1_linear_436_2972" x1="36.2162" y1="31.2763" x2="26.7939" y2="29.8523" gradientUnits="userSpaceOnUse">
<stop offset="0.00219421" stop-color="#E2B45C"/>
<stop offset="1" stop-color="#FDDC7F"/>
</linearGradient>
<linearGradient id="paint2_linear_436_2972" x1="15.292" y1="18.3981" x2="5.18006" y2="16.8061" gradientUnits="userSpaceOnUse">
<stop offset="0.00219421" stop-color="#E2B45C"/>
<stop offset="1" stop-color="#FDDC7F"/>
</linearGradient>
<linearGradient id="paint3_linear_436_2972" x1="11.5856" y1="31.3031" x2="2.46737" y2="29.9741" gradientUnits="userSpaceOnUse">
<stop offset="0.00219421" stop-color="#E2B45C"/>
<stop offset="1" stop-color="#FDDC7F"/>
</linearGradient>
<linearGradient id="paint4_linear_436_2972" x1="25.2267" y1="32.9383" x2="13.1537" y2="31.032" gradientUnits="userSpaceOnUse">
<stop offset="0.00219421" stop-color="#E2B45C"/>
<stop offset="1" stop-color="#FDDC7F"/>
</linearGradient>
<linearGradient id="paint5_linear_436_2972" x1="26.477" y1="42.5479" x2="12.0589" y2="38.9609" gradientUnits="userSpaceOnUse">
<stop offset="0.00219421" stop-color="#E2B45C"/>
<stop offset="1" stop-color="#FDDC7F"/>
</linearGradient>
</defs>
</svg>
