<svg width="40" height="40" viewBox="0 0 40 40" fill="none" xmlns="http://www.w3.org/2000/svg">
<g id="vuesax/bold/ranking">
<g id="vuesax/bold/ranking_2">
<g id="ranking">
<path id="Vector" d="M11.1163 23.332H6.66634C4.83301 23.332 3.33301 24.832 3.33301 26.6654V34.9987C3.33301 35.9154 4.08301 36.6654 4.99967 36.6654H11.1163C12.033 36.6654 12.783 35.9154 12.783 34.9987V24.9987C12.783 24.082 12.033 23.332 11.1163 23.332Z" fill="url(#paint0_linear_436_2966)"/>
<path id="Vector_2" d="M22.2169 16.668H17.7669C15.9336 16.668 14.4336 18.168 14.4336 20.0013V35.0013C14.4336 35.918 15.1836 36.668 16.1003 36.668H23.8836C24.8003 36.668 25.5503 35.918 25.5503 35.0013V20.0013C25.5503 18.168 24.0669 16.668 22.2169 16.668Z" fill="url(#paint1_linear_436_2966)"/>
<path id="Vector_3" d="M33.3335 28.332H28.8835C27.9668 28.332 27.2168 29.082 27.2168 29.9987V34.9987C27.2168 35.9154 27.9668 36.6654 28.8835 36.6654H35.0001C35.9168 36.6654 36.6668 35.9154 36.6668 34.9987V31.6654C36.6668 29.832 35.1668 28.332 33.3335 28.332Z" fill="url(#paint2_linear_436_2966)"/>
<path id="Vector_4" d="M25.0167 8.08151C25.5334 7.56484 25.7334 6.94818 25.5667 6.41484C25.4001 5.88151 24.8834 5.49818 24.1501 5.38151L22.5501 5.11484C22.4834 5.11484 22.3334 4.99818 22.3001 4.93151L21.4167 3.16484C20.7501 1.81484 19.2334 1.81484 18.5667 3.16484L17.6834 4.93151C17.6667 4.99818 17.5167 5.11484 17.4501 5.11484L15.8501 5.38151C15.1167 5.49818 14.6167 5.88151 14.4334 6.41484C14.2667 6.94818 14.4667 7.56484 14.9834 8.08151L16.2167 9.33151C16.2834 9.38151 16.3334 9.58151 16.3167 9.64818L15.9667 11.1815C15.7001 12.3315 16.1334 12.8482 16.4167 13.0482C16.7001 13.2482 17.3167 13.5148 18.3334 12.9148L19.8334 12.0315C19.9001 11.9815 20.1167 11.9815 20.1834 12.0315L21.6667 12.9148C22.1334 13.1982 22.5167 13.2815 22.8167 13.2815C23.1667 13.2815 23.4167 13.1482 23.5667 13.0482C23.8501 12.8482 24.2834 12.3315 24.0167 11.1815L23.6667 9.64818C23.6501 9.56484 23.7001 9.38151 23.7667 9.33151L25.0167 8.08151Z" fill="url(#paint3_linear_436_2966)"/>
</g>
</g>
</g>
<defs>
<linearGradient id="paint0_linear_436_2966" x1="12.3661" y1="44.2209" x2="2.30833" y2="43.0986" gradientUnits="userSpaceOnUse">
<stop offset="0.00219421" stop-color="#E2B45C"/>
<stop offset="1" stop-color="#FDDC7F"/>
</linearGradient>
<linearGradient id="paint1_linear_436_2966" x1="25.0598" y1="48.0013" x2="13.1719" y2="46.961" gradientUnits="userSpaceOnUse">
<stop offset="0.00219421" stop-color="#E2B45C"/>
<stop offset="1" stop-color="#FDDC7F"/>
</linearGradient>
<linearGradient id="paint2_linear_436_2966" x1="36.2499" y1="41.3876" x2="26.3814" y2="39.6257" gradientUnits="userSpaceOnUse">
<stop offset="0.00219421" stop-color="#E2B45C"/>
<stop offset="1" stop-color="#FDDC7F"/>
</linearGradient>
<linearGradient id="paint3_linear_436_2966" x1="25.1279" y1="19.5912" x2="13.3065" y2="17.7105" gradientUnits="userSpaceOnUse">
<stop offset="0.00219421" stop-color="#E2B45C"/>
<stop offset="1" stop-color="#FDDC7F"/>
</linearGradient>
</defs>
</svg>
