<svg width="40" height="40" viewBox="0 0 40 40" fill="none" xmlns="http://www.w3.org/2000/svg">
<g id="vuesax/bold/routing">
<g id="vuesax/bold/routing_2">
<path id="Vector" d="M14.7997 7.66719C13.4664 1.90052 4.78305 1.88386 3.44972 7.66719C2.66638 11.0505 4.81638 13.9172 6.68305 15.7005C8.04972 16.9839 10.1997 16.9839 11.5664 15.7005C13.4331 13.9172 15.5664 11.0505 14.7997 7.66719ZM9.18305 10.3339C8.26638 10.3339 7.51638 9.58386 7.51638 8.66719C7.51638 7.75052 8.24972 7.00052 9.16638 7.00052H9.18305C10.1164 7.00052 10.8497 7.75052 10.8497 8.66719C10.8497 9.58386 10.1164 10.3339 9.18305 10.3339Z" fill="url(#paint0_linear_436_2975)"/>
<path id="Vector_2" d="M36.5167 27.6672C35.1833 21.9005 26.4667 21.8839 25.1167 27.6672C24.3333 31.0505 26.4833 33.9172 28.3667 35.7005C29.7333 36.9839 31.9 36.9839 33.2667 35.7005C35.15 33.9172 37.3 31.0505 36.5167 27.6672ZM30.8833 30.3339C29.9667 30.3339 29.2167 29.5839 29.2167 28.6672C29.2167 27.7505 29.95 27.0005 30.8667 27.0005H30.8833C31.8 27.0005 32.55 27.7505 32.55 28.6672C32.55 29.5839 31.8 30.3339 30.8833 30.3339Z" fill="url(#paint1_linear_436_2975)"/>
<path id="Vector_3" d="M20.0001 32.9154H15.5334C13.6001 32.9154 11.9167 31.7487 11.2501 29.9487C10.5667 28.1487 11.0667 26.1654 12.5167 24.882L25.8334 13.232C26.6334 12.532 26.6501 11.582 26.4167 10.932C26.1667 10.282 25.5334 9.58203 24.4667 9.58203H20.0001C19.3167 9.58203 18.7501 9.01536 18.7501 8.33203C18.7501 7.6487 19.3167 7.08203 20.0001 7.08203H24.4667C26.4001 7.08203 28.0834 8.2487 28.7501 10.0487C29.4334 11.8487 28.9334 13.832 27.4834 15.1154L14.1667 26.7654C13.3667 27.4654 13.3501 28.4154 13.5834 29.0654C13.8334 29.7154 14.4667 30.4154 15.5334 30.4154H20.0001C20.6834 30.4154 21.2501 30.982 21.2501 31.6654C21.2501 32.3487 20.6834 32.9154 20.0001 32.9154Z" fill="url(#paint2_linear_436_2975)"/>
</g>
</g>
<defs>
<linearGradient id="paint0_linear_436_2975" x1="14.4449" y1="24.215" x2="2.09832" y2="22.5121" gradientUnits="userSpaceOnUse">
<stop offset="0.00219421" stop-color="#E2B45C"/>
<stop offset="1" stop-color="#FDDC7F"/>
</linearGradient>
<linearGradient id="paint1_linear_436_2975" x1="36.1646" y1="44.215" x2="23.7619" y2="42.4962" gradientUnits="userSpaceOnUse">
<stop offset="0.00219421" stop-color="#E2B45C"/>
<stop offset="1" stop-color="#FDDC7F"/>
</linearGradient>
<linearGradient id="paint2_linear_436_2975" x1="28.2532" y1="47.5542" x2="8.97993" y2="45.4278" gradientUnits="userSpaceOnUse">
<stop offset="0.00219421" stop-color="#E2B45C"/>
<stop offset="1" stop-color="#FDDC7F"/>
</linearGradient>
</defs>
</svg>
