<svg width="40" height="40" viewBox="0 0 40 40" fill="none" xmlns="http://www.w3.org/2000/svg">
<path d="M21.483 9.80078H8.51634C5.66634 9.80078 3.33301 12.1341 3.33301 14.9841V33.9174C3.33301 36.3341 5.06634 37.3674 7.18301 36.1841L13.733 32.5341C14.433 32.1508 15.5663 32.1508 16.2497 32.5341L22.7997 36.1841C24.933 37.3508 26.6663 36.3341 26.6663 33.9174V14.9841C26.6663 12.1341 24.333 9.80078 21.483 9.80078Z" fill="url(#paint0_linear_436_3057)"/>
<path d="M36.6667 8.51537V27.4487C36.6667 29.8654 34.9334 30.882 32.8167 29.7154L29.6001 27.9154C29.3334 27.7654 29.1667 27.482 29.1667 27.182V14.982C29.1667 10.7487 25.7167 7.2987 21.4834 7.2987H14.7001C14.0834 7.2987 13.6501 6.6487 13.9334 6.11536C14.8001 4.46536 16.5334 3.33203 18.5167 3.33203H31.4834C34.3334 3.33203 36.6667 5.66536 36.6667 8.51537Z" fill="url(#paint1_linear_436_3057)"/>
<defs>
<linearGradient id="paint0_linear_436_3057" x1="25.6369" y1="51.9038" x2="0.954914" y2="48.5299" gradientUnits="userSpaceOnUse">
<stop offset="0.00219421" stop-color="#E2B45C"/>
<stop offset="1" stop-color="#FDDC7F"/>
</linearGradient>
<linearGradient id="paint1_linear_436_3057" x1="35.6599" y1="45.4237" x2="11.4998" y2="42.1926" gradientUnits="userSpaceOnUse">
<stop offset="0.00219421" stop-color="#E2B45C"/>
<stop offset="1" stop-color="#FDDC7F"/>
</linearGradient>
</defs>
</svg>
