<svg width="40" height="40" viewBox="0 0 40 40" fill="none" xmlns="http://www.w3.org/2000/svg">
<path d="M26.984 3.33203H13.0173C6.95065 3.33203 3.33398 6.9487 3.33398 13.0154V26.982C3.33398 33.0487 6.95065 36.6654 13.0173 36.6654H26.984C33.0507 36.6654 36.6673 33.0487 36.6673 26.982V13.0154C36.6673 6.9487 33.0507 3.33203 26.984 3.33203ZM16.6173 24.832L12.8673 28.582C12.6173 28.832 12.3007 28.9487 11.984 28.9487C11.6673 28.9487 11.334 28.832 11.1007 28.582L9.85065 27.332C9.35065 26.8487 9.35065 26.0487 9.85065 25.5654C10.334 25.082 11.1173 25.082 11.6173 25.5654L11.984 25.932L14.8507 23.0654C15.334 22.582 16.1173 22.582 16.6173 23.0654C17.1007 23.5487 17.1007 24.3487 16.6173 24.832ZM16.6173 13.1654L12.8673 16.9154C12.6173 17.1654 12.3007 17.282 11.984 17.282C11.6673 17.282 11.334 17.1654 11.1007 16.9154L9.85065 15.6654C9.35065 15.182 9.35065 14.382 9.85065 13.8987C10.334 13.4154 11.1173 13.4154 11.6173 13.8987L11.984 14.2654L14.8507 11.3987C15.334 10.9154 16.1173 10.9154 16.6173 11.3987C17.1007 11.882 17.1007 12.682 16.6173 13.1654ZM29.2673 27.6987H20.5173C19.834 27.6987 19.2673 27.132 19.2673 26.4487C19.2673 25.7654 19.834 25.1987 20.5173 25.1987H29.2673C29.9673 25.1987 30.5173 25.7654 30.5173 26.4487C30.5173 27.132 29.9673 27.6987 29.2673 27.6987ZM29.2673 16.032H20.5173C19.834 16.032 19.2673 15.4654 19.2673 14.782C19.2673 14.0987 19.834 13.532 20.5173 13.532H29.2673C29.9673 13.532 30.5173 14.0987 30.5173 14.782C30.5173 15.4654 29.9673 16.032 29.2673 16.032Z" fill="url(#paint0_linear_436_3052)"/>
<defs>
<linearGradient id="paint0_linear_436_3052" x1="35.1967" y1="55.5542" x2="0.146646" y2="50.036" gradientUnits="userSpaceOnUse">
<stop offset="0.00219421" stop-color="#E2B45C"/>
<stop offset="1" stop-color="#FDDC7F"/>
</linearGradient>
</defs>
</svg>
