<svg width="32" height="32" viewBox="0 0 32 32" fill="none" xmlns="http://www.w3.org/2000/svg">
<path d="M28.9068 3.96559C28.6313 3.72765 28.2959 3.56964 27.9369 3.50866C27.578 3.44768 27.2092 3.48606 26.8706 3.61964L3.80092 12.6827C3.39881 12.8407 3.05866 13.1247 2.83137 13.4921C2.60409 13.8595 2.50188 14.2906 2.54005 14.7209C2.57822 15.1513 2.75471 15.5577 3.04311 15.8793C3.33152 16.201 3.71633 16.4206 4.13997 16.5054L9.99983 17.6774V24.9966C9.99949 25.3923 10.1166 25.7792 10.3363 26.1083C10.556 26.4374 10.8684 26.694 11.234 26.8454C11.5996 26.9968 12.0019 27.0364 12.39 26.959C12.7781 26.8816 13.1344 26.6908 13.414 26.4108L16.6569 23.1679L21.5789 27.4993C21.9413 27.8211 22.4089 27.999 22.8936 27.9996C23.1042 27.9994 23.3136 27.9662 23.514 27.9013C23.8445 27.7964 24.1418 27.6067 24.3762 27.3511C24.6105 27.0955 24.7737 26.783 24.8496 26.4446L29.5513 5.92799C29.6332 5.57322 29.6164 5.20281 29.5028 4.85689C29.3892 4.51098 29.1831 4.20274 28.9068 3.96559ZM22.9001 25.9978L12.6011 16.9346L27.4317 6.22371L22.9001 25.9978Z" fill="white"/>
</svg>
