<svg width="32" height="32" viewBox="0 0 32 32" fill="none" xmlns="http://www.w3.org/2000/svg">
<path d="M28.9078 3.96559C28.6322 3.72765 28.2968 3.56964 27.9379 3.50866C27.579 3.44768 27.2102 3.48606 26.8715 3.61964L3.80189 12.6827C3.39978 12.8407 3.05964 13.1247 2.83235 13.4921C2.60506 13.8595 2.50286 14.2906 2.54103 14.7209C2.57919 15.1513 2.75569 15.5577 3.04409 15.8793C3.33249 16.201 3.71731 16.4206 4.14094 16.5054L10.0008 17.6774V24.9966C10.0005 25.3923 10.1176 25.7792 10.3373 26.1083C10.557 26.4374 10.8694 26.694 11.235 26.8454C11.6006 26.9968 12.0029 27.0364 12.391 26.959C12.779 26.8816 13.1354 26.6908 13.415 26.4108L16.6579 23.1679L21.5799 27.4993C21.9423 27.8211 22.4099 27.999 22.8945 27.9996C23.1052 27.9994 23.3146 27.9662 23.515 27.9013C23.8455 27.7964 24.1428 27.6067 24.3771 27.3511C24.6115 27.0955 24.7747 26.783 24.8505 26.4446L29.5523 5.92799C29.6341 5.57322 29.6173 5.20281 29.5037 4.85689C29.3901 4.51098 29.184 4.20274 28.9078 3.96559ZM22.9011 25.9978L12.6021 16.9346L27.4326 6.22371L22.9011 25.9978Z" fill="#131D22"/>
</svg>
