<svg width="32" height="32" viewBox="0 0 32 32" fill="none" xmlns="http://www.w3.org/2000/svg">
<path d="M28.8334 8.34281C28.5878 6.79557 27.1732 5.44352 25.6078 5.2642C19.2193 4.568 12.774 4.56818 6.3855 5.26475C4.82569 5.44346 3.41114 6.79539 3.16419 8.34843C2.38767 13.4216 2.38798 18.5835 3.16511 23.6566C3.41108 25.2039 4.82569 26.5558 6.39075 26.735C9.58176 27.0831 12.7893 27.2574 15.9993 27.2572C19.2092 27.2574 22.4168 27.0831 25.6078 26.735L25.6129 26.7345C27.173 26.5559 28.5876 25.204 28.8344 23.6508C29.6109 18.5777 29.6106 13.4159 28.8334 8.34281ZM20.554 16.8316L14.554 20.8316C14.4034 20.932 14.2283 20.9897 14.0476 20.9984C13.8668 21.0072 13.687 20.9667 13.5274 20.8813C13.3678 20.7959 13.2344 20.6687 13.1414 20.5135C13.0484 20.3582 12.9993 20.1806 12.9993 19.9996V11.9996C12.9993 11.8186 13.0484 11.641 13.1414 11.4857C13.2344 11.3305 13.3678 11.2034 13.5274 11.118C13.687 11.0326 13.8668 10.9921 14.0476 11.0008C14.2283 11.0095 14.4034 11.0672 14.554 11.1676L20.554 15.1676C20.6909 15.2589 20.8033 15.3826 20.8809 15.5278C20.9586 15.6729 20.9993 15.835 20.9993 15.9996C20.9993 16.1642 20.9586 16.3263 20.8809 16.4715C20.8033 16.6166 20.6909 16.7403 20.554 16.8316Z" fill="#131D22"/>
</svg>
