<svg width="32" height="32" viewBox="0 0 32 32" fill="none" xmlns="http://www.w3.org/2000/svg">
<path d="M28.8339 8.34281C28.5883 6.79557 27.1737 5.44352 25.6083 5.2642C19.2198 4.568 12.7745 4.56818 6.38599 5.26475C4.82618 5.44346 3.41163 6.79539 3.16468 8.34843C2.38816 13.4216 2.38847 18.5835 3.1656 23.6566C3.41157 25.2039 4.82618 26.5558 6.39124 26.735C9.58225 27.0831 12.7898 27.2574 15.9998 27.2572C19.2097 27.2574 22.4173 27.0831 25.6083 26.735L25.6134 26.7345C27.1735 26.5559 28.5881 25.204 28.8348 23.6508C29.6114 18.5777 29.6111 13.4159 28.8339 8.34281ZM20.5545 16.8316L14.5545 20.8316C14.4039 20.932 14.2288 20.9897 14.048 20.9984C13.8673 21.0072 13.6875 20.9667 13.5279 20.8813C13.3683 20.7959 13.2349 20.6687 13.1419 20.5135C13.0489 20.3582 12.9998 20.1806 12.9998 19.9996V11.9996C12.9998 11.8186 13.0489 11.641 13.1419 11.4857C13.2349 11.3305 13.3683 11.2034 13.5279 11.118C13.6875 11.0326 13.8673 10.9921 14.048 11.0008C14.2288 11.0095 14.4039 11.0672 14.5545 11.1676L20.5545 15.1676C20.6914 15.2589 20.8037 15.3826 20.8814 15.5278C20.9591 15.6729 20.9998 15.835 20.9998 15.9996C20.9998 16.1642 20.9591 16.3263 20.8814 16.4715C20.8037 16.6166 20.6914 16.7403 20.5545 16.8316Z" fill="white"/>
</svg>
